<svg width="22" height="22" viewBox="0 0 22 22" fill="none" xmlns="http://www.w3.org/2000/svg">
<path d="M21.9832 8.49066C21.9832 8.45757 21.9758 8.4076 21.9629 8.37881C21.9291 8.25618 21.8539 8.14416 21.7415 8.06596L18.5922 5.87679V3.53C18.5922 3.21891 18.3399 2.9666 18.0288 2.9666H14.4057L11.323 0.823402C11.1303 0.689297 10.8745 0.688738 10.6813 0.822285L7.57866 2.9666H3.97143C3.66025 2.9666 3.40802 3.21891 3.40802 3.53V5.84916L0.243461 8.03631C0.0877852 8.1439 0.00356641 8.31591 0.000902344 8.49178C0.000730469 8.49509 0 8.49822 0 8.50166L0.0168008 20.7149C0.0170156 20.8643 0.0765703 21.0075 0.182316 21.113C0.287934 21.2183 0.43102 21.2775 0.580207 21.2775C0.580508 21.2775 0.580723 21.2775 0.58098 21.2775L21.4374 21.2488C21.7485 21.2484 22.0004 20.9958 22 20.6846L21.9832 8.49066ZM18.5921 7.24916L20.3925 8.50033L18.5921 9.75192V7.24916ZM11.0006 1.97157L12.4319 2.96655H9.56111L11.0006 1.97157ZM4.53484 4.09341H17.4653V10.5353L13.1239 13.5535L11.3539 12.1805C11.3511 12.1784 11.3488 12.177 11.3461 12.1751C11.1483 12.0267 10.8685 12.0212 10.6632 12.1805L8.88027 13.5635L4.53484 10.5603V4.09341ZM3.40802 7.21887V9.78153L1.55409 8.50024L3.40802 7.21887ZM1.12827 9.57631L7.94608 14.288L1.14202 19.5656L1.12827 9.57631ZM2.229 20.1484L11.0086 13.3386L19.7566 20.1243L2.229 20.1484ZM14.057 14.2773L20.8579 9.54915L20.8716 19.5634L14.057 14.2773Z" fill="#FCBF42"/>
</svg>
