<svg width="35" height="38" viewBox="0 0 35 38" fill="none" xmlns="http://www.w3.org/2000/svg">
<path d="M13.5882 25.0893L13.3157 27.624C13.2963 27.8271 13.3644 28.0303 13.5006 28.1851C13.6368 28.3399 13.8314 28.427 14.0455 28.427H21.7615C21.9658 28.427 22.1702 28.3399 22.3064 28.1851C22.4426 28.0303 22.5107 27.8271 22.4913 27.624L22.2188 25.0893H31.8322C33.3307 25.0893 34.5469 23.88 34.5469 22.3901V3.69916C34.5372 2.2093 33.3209 1 31.8225 1H3.39098C1.89254 1 0.67627 2.2093 0.67627 3.69916V22.3901C0.67627 23.88 1.89254 25.0893 3.39098 25.0893H13.5882ZM20.9442 26.9758H14.8531L15.0574 25.0893H20.7496L20.9442 26.9758ZM3.39098 2.45116H31.8225C32.5133 2.45116 33.0777 3.01228 33.0777 3.69916V20.1553H2.13579V3.69916C2.13579 3.01228 2.70014 2.45116 3.39098 2.45116ZM2.13579 22.3901V21.6065H33.0777V22.3901C33.0777 23.077 32.5133 23.6381 31.8225 23.6381H3.39098C2.70014 23.6381 2.13579 23.077 2.13579 22.3901Z" fill="#FCBF42" stroke="#FCBF42" stroke-width="0.9"/>
<path d="M31.8034 36.9979C31.9396 36.785 31.9493 36.5141 31.8228 36.282L30.3828 31.7281C30.2563 31.4862 30.0033 31.3411 29.7309 31.3411H5.4736C5.20116 31.3411 4.94818 31.4959 4.82168 31.7281L3.38162 36.282C3.26486 36.5045 3.27459 36.7754 3.40108 36.9979C3.52758 37.2204 3.77083 37.3461 4.02381 37.3461H31.1709C31.4336 37.3461 31.6672 37.2107 31.8034 36.9979ZM5.23035 35.895L5.91146 32.7923H29.293L29.9741 35.895H5.23035Z" fill="#FCBF42" stroke="#FCBF42" stroke-width="0.9"/>
</svg>
