<svg width="83" height="93" viewBox="0 0 83 93" fill="none" xmlns="http://www.w3.org/2000/svg">
<path d="M15.5401 72.5255L15.1801 72.7055C4.2001 77.3855 0.600098 79.0055 0.600098 84.4055C0.600098 88.5455 4.3801 92.1455 8.3401 92.1455H74.7601C78.9001 92.1455 82.5001 88.3655 82.5001 84.4055C82.5001 79.0055 78.9001 77.3855 67.9201 72.5255L67.5601 72.3455C65.2201 71.2655 62.7001 70.1855 59.8201 68.9255C58.9201 69.8255 58.0201 70.5455 57.1201 71.0855C60.7201 72.7055 63.9601 74.1455 66.6601 75.4055C77.4601 80.0855 79.4401 81.1655 79.4401 84.4055C79.4401 86.5655 77.4601 89.0855 74.7601 89.0855H8.3401C5.6401 89.0855 3.6601 86.5655 3.6601 84.4055C3.6601 81.3455 5.6401 80.0855 16.4401 75.4055C19.3201 74.1455 22.3801 72.7055 25.9801 71.0855C25.0801 70.3655 24.1801 69.6455 23.2801 68.9255C20.4001 70.3655 17.8801 71.4455 15.5401 72.5255Z" fill="#FCBF42"/>
<path d="M41.6401 0.885559C26.7001 0.885559 14.4601 13.1256 14.4601 28.0656V28.7856H9.0601C6.9001 28.7856 5.1001 30.5856 5.1001 32.7456V46.6056C5.1001 48.7656 6.9001 50.5656 9.0601 50.5656H13.7401C14.8201 50.5656 15.9001 50.0256 16.6201 49.3056L17.1601 48.5856L17.8801 49.4856C17.8801 49.6656 18.0601 49.6656 18.2401 49.8456L18.4201 50.2056C21.6601 62.9856 31.0201 71.6256 41.6401 71.6256C52.4401 71.6256 62.1601 62.4456 65.0401 49.3056L65.4001 47.6856L66.3001 48.9456C67.0201 50.0256 68.1001 50.5656 69.3601 50.5656H74.0401C76.2001 50.5656 78.0001 48.7656 78.0001 46.6056V32.7456C78.0001 30.5856 76.2001 28.7856 74.0401 28.7856H68.6401V28.0656C68.8201 13.1256 56.5801 0.885559 41.6401 0.885559ZM14.4601 47.3256H8.3401V31.8456H14.4601V47.3256ZM41.6401 68.3856C34.0801 68.3856 27.0601 63.1656 23.2801 54.7056L22.5601 52.9056L24.3601 53.6256C29.4001 55.7856 36.4201 57.2256 41.6401 57.2256C42.5401 57.2256 43.2601 56.5056 43.2601 55.6056C43.2601 54.7056 42.5401 53.9856 41.6401 53.9856C33.1801 53.9856 24.3601 50.5656 21.4801 48.2256L21.3001 48.0456V47.8656C20.7601 45.3456 20.5801 43.0056 20.5801 40.6656C20.5801 25.5456 30.1201 13.1256 41.8201 13.1256C53.5201 13.1256 63.0601 25.5456 63.0601 40.6656C63.0601 55.7856 53.3401 68.3856 41.6401 68.3856ZM65.5801 28.4256L65.4001 32.5656L64.1401 28.7856C60.3601 17.4456 51.5401 10.0656 41.6401 10.0656C31.7401 10.0656 23.1001 17.4456 19.1401 28.7856L17.8801 32.5656L17.7001 28.4256C17.7001 28.0656 17.7001 28.0656 17.7001 27.8856C17.7001 14.7456 28.5001 3.94556 41.6401 3.94556C54.7801 3.94556 65.5801 14.7456 65.5801 27.8856C65.5801 28.0656 65.5801 28.2456 65.5801 28.4256ZM74.9401 31.8456V47.3256H68.8201V31.8456H74.9401Z" fill="#FCBF42"/>
</svg>
