<svg width="660" height="56" viewBox="0 0 660 56" fill="none" xmlns="http://www.w3.org/2000/svg">
<rect x="1" y="1" width="658" height="54" rx="5" stroke="#FCBF42" stroke-width="2"/>
<path d="M321.228 28.2759H315.792V34H313.444V20.4922H322.026V22.3848H315.792V26.4019H321.228V28.2759ZM330.05 30.855H324.818L323.723 34H321.283L326.386 20.4922H328.492L333.604 34H331.154L330.05 30.855ZM325.477 28.9624H329.392L327.434 23.3589L325.477 28.9624ZM346.054 27.5986C346.054 28.8789 345.849 29.9891 345.441 30.9292C345.039 31.8631 344.473 32.6053 343.743 33.1558L346.063 34.9648L344.541 36.3379L341.665 34.0649C341.288 34.1453 340.883 34.1855 340.45 34.1855C339.361 34.1855 338.387 33.9196 337.528 33.3877C336.674 32.8496 336.012 32.0858 335.542 31.0962C335.078 30.1066 334.843 28.9655 334.837 27.6729V26.9121C334.837 25.5947 335.069 24.432 335.533 23.4238C336.003 22.4157 336.662 21.6457 337.509 21.1138C338.363 20.5757 339.337 20.3066 340.431 20.3066C341.545 20.3066 342.525 20.5726 343.372 21.1045C344.226 21.6302 344.885 22.391 345.348 23.3867C345.812 24.3763 346.047 25.5298 346.054 26.8472V27.5986ZM343.697 26.8936C343.697 25.3721 343.413 24.2186 342.844 23.4331C342.275 22.6476 341.471 22.2549 340.431 22.2549C339.423 22.2549 338.632 22.6538 338.056 23.4517C337.487 24.2433 337.197 25.3628 337.184 26.8101V27.5986C337.184 29.0583 337.469 30.1994 338.038 31.022C338.613 31.8446 339.417 32.2559 340.45 32.2559C341.495 32.2559 342.296 31.86 342.853 31.0684C343.416 30.2767 343.697 29.1201 343.697 27.5986V26.8936Z" fill="#0E0E0E"/>
</svg>
