<svg width="46" height="46" viewBox="0 0 46 46" fill="none" xmlns="http://www.w3.org/2000/svg">
<path d="M42.7292 7.36H42.4112H42.0933C29.2167 7.36 16.3401 7.36 3.46345 7.36H2.82757H2.35066H2.19169C1.39683 7.36 0.919922 7.98829 0.919922 8.61658V38.3034C0.919922 38.9317 1.39683 39.56 2.19169 39.56H2.50963H42.5702H42.8882C43.524 39.56 44.1599 39.0888 44.1599 38.3034V8.61658C44.0009 7.98829 43.3651 7.36 42.7292 7.36ZM5.68904 9.87317H6.32492H6.9608C17.4529 9.87317 28.1039 9.87317 38.5959 9.87317H39.0729L31.6012 16.3132L22.3809 24.1668L13.1607 16.3132L5.68904 9.87317ZM3.30448 10.9727L11.5709 18.041L17.9298 23.3815L11.5709 28.7219L3.30448 35.7902V10.9727ZM5.68904 37.0468L13.1607 30.6068L19.6784 24.9522L21.5861 26.5229C22.063 26.9941 22.6989 26.8371 23.1758 26.5229L24.9245 24.9522L31.4423 30.6068L38.9139 37.0468H5.68904ZM41.4574 35.9473L33.1909 28.879L26.8321 23.5385L33.1909 18.198L41.4574 11.1298V35.9473Z" fill="#FCBF42"/>
</svg>
