<svg width="50" height="50" viewBox="0 0 50 50" fill="none" xmlns="http://www.w3.org/2000/svg">
<path d="M33.9697 41C32.5151 41 30.697 40.6364 28.6364 39.9091C24.2727 38.2121 19.5455 35.0606 15.303 30.697C11.0606 26.3333 7.78788 21.7273 6.09091 17.3636C4.63636 13.3636 4.63636 10.0909 6.09091 8.63637C6.33333 8.39394 6.57576 8.15152 6.69697 7.90909C8.15152 6.57576 9.72727 4.87879 11.6667 5C13.1212 5 14.4545 5.9697 15.7879 7.66667C19.9091 12.7576 18.0909 14.5758 15.9091 16.7576L15.6667 17.1212C15.303 17.4848 14.697 19.0606 20.8788 25.2424C22.9394 27.303 24.6364 28.7576 25.9697 29.6061C26.8182 30.2121 28.3939 31.0606 29 30.3333L29.3636 29.9697C31.4242 27.7879 33.2424 25.9697 38.4545 30.0909C40.1515 31.4242 41 32.8788 41.1212 34.2121C41.2424 36.2727 39.5455 37.8485 38.0909 39.1818C37.8485 39.4242 37.6061 39.6667 37.3636 39.7879C36.6364 40.6364 35.4242 41 33.9697 41ZM11.5455 6.21212C10.0909 6.21212 8.75758 7.54546 7.66667 8.75758C7.42424 9 7.18182 9.24243 6.93939 9.48485C5.84848 10.5758 5.9697 13.4848 7.30303 17C8.87879 21.2424 12.0303 25.8485 16.1515 29.9697C20.2727 34.0909 24.8788 37.2424 29.1212 38.8182C32.5151 40.1515 35.4242 40.2727 36.5152 39.0606C36.7576 38.8182 37 38.5758 37.2424 38.3333C38.4545 37.1212 39.9091 35.7879 39.7879 34.3333C39.7879 33.3636 39.0606 32.1515 37.6061 31.0606C33.3636 27.6667 32.1515 28.8788 30.2121 30.8182L29.8485 31.1818C28.8788 32.1515 27.4242 31.9091 25.2424 30.5758C23.7879 29.6061 21.9697 28.1515 19.9091 25.9697C14.8182 21 13.1212 17.8485 14.697 16.2727L15.1818 15.9091C17.1212 13.8485 18.3333 12.6364 14.9394 8.39394C13.7273 7.06061 12.6364 6.21212 11.5455 6.21212C11.6667 6.21212 11.5455 6.21212 11.5455 6.21212Z" fill="#FCBF42"/>
<path d="M11.5455 6.21212C10.0909 6.21212 8.75758 7.54546 7.66667 8.75758C7.42424 9 7.18182 9.24243 6.93939 9.48485C5.84848 10.5758 5.9697 13.4848 7.30303 17C8.87879 21.2424 12.0303 25.8485 16.1515 29.9697C20.2727 34.0909 24.8788 37.2424 29.1212 38.8182C32.5151 40.1515 35.4242 40.2727 36.5151 39.0606C36.7576 38.8182 37 38.5758 37.2424 38.3333C38.4545 37.1212 39.9091 35.7879 39.7879 34.3333C39.7879 33.3636 39.0606 32.1515 37.6061 31.0606C33.3636 27.6667 32.1515 28.8788 30.2121 30.8182L29.8485 31.1818C28.8788 32.1515 27.4242 31.9091 25.2424 30.5758C23.7879 29.6061 21.9697 28.1515 19.9091 25.9697C14.8182 21 13.1212 17.8485 14.697 16.2727L15.1818 15.9091C17.1212 13.8485 18.3333 12.6364 14.9394 8.39394C13.7273 7.06061 12.6364 6.21212 11.5455 6.21212ZM11.5455 6.21212C11.6667 6.21212 11.5455 6.21212 11.5455 6.21212ZM33.9697 41C32.5151 41 30.697 40.6364 28.6364 39.9091C24.2727 38.2121 19.5455 35.0606 15.303 30.697C11.0606 26.3333 7.78788 21.7273 6.09091 17.3636C4.63636 13.3636 4.63636 10.0909 6.09091 8.63637C6.33333 8.39394 6.57576 8.15152 6.69697 7.90909C8.15152 6.57576 9.72727 4.87879 11.6667 5C13.1212 5 14.4545 5.9697 15.7879 7.66667C19.9091 12.7576 18.0909 14.5758 15.9091 16.7576L15.6667 17.1212C15.303 17.4848 14.697 19.0606 20.8788 25.2424C22.9394 27.303 24.6364 28.7576 25.9697 29.6061C26.8182 30.2121 28.3939 31.0606 29 30.3333L29.3636 29.9697C31.4242 27.7879 33.2424 25.9697 38.4545 30.0909C40.1515 31.4242 41 32.8788 41.1212 34.2121C41.2424 36.2727 39.5455 37.8485 38.0909 39.1818C37.8485 39.4242 37.6061 39.6667 37.3636 39.7879C36.6364 40.6364 35.4242 41 33.9697 41Z" stroke="#FCBF42" stroke-width="1.4"/>
<path d="M34.2123 19.9091C34.0911 19.9091 34.0911 19.9091 33.9699 19.9091C33.6063 19.7879 33.4851 19.4242 33.6063 19.1818C34.3336 17.2424 33.9699 15.0606 32.5154 13.6061C31.0608 12.1515 28.7578 11.6667 26.8184 12.5152C26.576 12.6364 26.2123 12.5152 25.9699 12.2727C25.8487 11.9091 25.9699 11.6667 26.2123 11.4242C28.6366 10.3333 31.4245 10.8182 33.2426 12.7576C35.0608 14.5758 35.5457 17.2424 34.576 19.5455C34.6972 19.7879 34.4548 19.9091 34.2123 19.9091Z" fill="#FCBF42" stroke="#FCBF42" stroke-width="1.4"/>
<path d="M39.5456 22.0909C39.4244 22.0909 39.4244 22.0909 39.3032 22.0909C38.9395 21.9697 38.8183 21.6061 38.9395 21.3636C40.6365 17.2424 39.6668 12.6364 36.5153 9.48485C33.485 6.21212 28.5153 5.36364 24.3941 7.18182C24.0304 7.30303 23.788 7.18182 23.5456 6.9394C23.4244 6.57576 23.5456 6.33334 23.788 6.09091C28.3941 4.0303 33.8486 5 37.3638 8.51515C40.8789 12.0303 41.8486 17.1212 40.0304 21.7273C40.0304 21.9697 39.788 22.0909 39.5456 22.0909Z" fill="#FCBF42" stroke="#FCBF42" stroke-width="1.4"/>
</svg>
