<svg width="215" height="48" viewBox="0 0 215 48" fill="none" xmlns="http://www.w3.org/2000/svg">
<g clip-path="url(#clip0)">
<path d="M80.5927 22.6684C80.5927 25.7317 80.0422 28.4197 78.9411 30.7237C77.8401 33.0277 76.2573 34.808 74.1928 36.0473C72.1283 37.2866 69.7541 37.915 67.0617 37.915C64.4639 37.915 62.1499 37.3128 60.1284 36.0997C58.1069 34.8866 56.5414 33.1673 55.4317 30.9419C54.322 28.7164 53.7715 26.1942 53.7715 23.3666C53.7715 20.3295 54.3306 17.659 55.4575 15.3375C56.5758 13.0248 58.1843 11.2531 60.2833 10.0139C62.3822 8.77459 64.8079 8.15495 67.5606 8.15495C70.081 8.15495 72.3347 8.76586 74.339 9.97895C76.3347 11.192 77.8745 12.9113 78.9669 15.1193C80.0508 17.3273 80.5927 19.8495 80.5927 22.6684ZM77.1089 23.1135C77.1089 19.3695 76.2487 16.4459 74.5197 14.3426C72.7907 12.248 70.3821 11.192 67.3025 11.192C65.3671 11.192 63.6295 11.6895 62.0897 12.6844C60.5585 13.6793 59.3628 15.0931 58.5198 16.9259C57.6768 18.7586 57.2553 20.8095 57.2553 23.0611C57.2553 25.3651 57.6596 27.416 58.4768 29.2139C59.2854 31.0117 60.4467 32.408 61.9434 33.3855C63.4488 34.363 65.152 34.8604 67.0703 34.8604C70.21 34.8604 72.6702 33.8131 74.4509 31.7273C76.2229 29.6502 77.1089 26.7702 77.1089 23.1135ZM94.855 9.88295C94.2184 9.51641 93.5044 9.34186 92.6958 9.34186C90.4249 9.34186 89.298 10.7906 89.298 13.6968V16.8648H94.0464V19.6488H89.298V37.4088H86.055V19.6575H82.6142V16.8735H86.055V13.5397C86.055 11.4539 86.6658 9.7695 87.8701 8.48659C89.083 7.20368 90.6313 6.55786 92.498 6.55786C93.4872 6.55786 94.27 6.68004 94.855 6.92441V9.88295Z" fill="white"/>
<path d="M106.029 9.88291C105.392 9.51636 104.679 9.34182 103.87 9.34182C101.599 9.34182 100.472 10.7905 100.472 13.6967V16.8647H105.22V19.6487H100.472V37.4087H97.2291V19.6575H93.7883V16.8735H97.2291V13.5396C97.2291 11.4538 97.8399 9.76945 99.0528 8.48655C100.266 7.20364 101.805 6.55782 103.681 6.55782C104.67 6.55782 105.453 6.68 106.038 6.92436L106.029 9.88291ZM112.016 9.50764C112.016 10.1273 111.81 10.6335 111.38 11.0436C110.958 11.4538 110.459 11.6545 109.874 11.6545C109.281 11.6545 108.782 11.4625 108.369 11.0611C107.965 10.6684 107.758 10.1447 107.758 9.50764C107.758 8.93164 107.956 8.43418 108.36 8.01527C108.765 7.58764 109.263 7.38691 109.874 7.38691C110.476 7.38691 110.984 7.58764 111.397 8.00655C111.81 8.41673 112.016 8.91418 112.016 9.50764ZM111.457 37.4175H108.214V16.8647H111.457V37.4175ZM129.969 36.4749C128.403 37.4349 126.545 37.9236 124.412 37.9236C122.571 37.9236 120.911 37.4873 119.44 36.632C117.969 35.768 116.825 34.5462 116.007 32.9665C115.19 31.3869 114.786 29.6153 114.786 27.6516C114.786 24.2567 115.741 21.5251 117.659 19.4655C119.577 17.4058 122.132 16.376 125.323 16.376C127.096 16.376 128.652 16.7251 130.012 17.4233V20.792C128.498 19.7185 126.889 19.1862 125.186 19.1862C123.087 19.1862 121.384 19.9455 120.076 21.464C118.76 22.9825 118.106 24.9462 118.106 27.3549C118.106 29.7549 118.734 31.64 119.973 33.0364C121.22 34.424 122.889 35.1222 124.988 35.1222C126.751 35.1222 128.42 34.5375 129.969 33.3593V36.4749ZM149.9 27.9658H135.603C135.655 30.2785 136.257 32.0502 137.418 33.272C138.571 34.4938 140.171 35.1047 142.209 35.1047C144.506 35.1047 146.596 34.3542 148.48 32.8618V35.9338C146.717 37.2604 144.368 37.9149 141.435 37.9149C138.545 37.9149 136.291 36.9724 134.665 35.0785C133.048 33.1847 132.231 30.5665 132.231 27.224C132.231 25.1905 132.635 23.3316 133.452 21.656C134.261 19.9804 135.379 18.68 136.807 17.7549C138.235 16.8298 139.818 16.3673 141.556 16.3673C144.179 16.3673 146.227 17.2313 147.697 18.968C149.168 20.696 149.9 23.1222 149.9 26.2378V27.9658ZM146.579 25.1731C146.553 23.2705 146.097 21.7956 145.22 20.7484C144.343 19.7011 143.104 19.1775 141.513 19.1775C140.007 19.1775 138.726 19.7273 137.659 20.8182C136.592 21.9178 135.921 23.3665 135.646 25.1731H146.579ZM174.579 29.2662C174.579 31.8582 173.658 33.9527 171.826 35.5411C169.994 37.1295 167.585 37.9149 164.609 37.9149C161.908 37.9149 159.758 37.3913 158.158 36.3527V32.8182C160.067 34.3455 162.261 35.1047 164.721 35.1047C166.717 35.1047 168.299 34.6073 169.478 33.6124C170.656 32.6175 171.25 31.2647 171.25 29.5716C171.25 25.8102 168.609 23.9338 163.336 23.9338H160.979V21.1411H163.216C167.887 21.1411 170.218 19.3782 170.218 15.8436C170.218 12.5796 168.437 10.9476 164.876 10.9476C162.871 10.9476 160.996 11.6284 159.241 12.9898V9.79564C161.048 8.696 163.198 8.14618 165.684 8.14618C168.033 8.14618 169.925 8.77455 171.37 10.04C172.815 11.3055 173.538 12.9636 173.538 15.0058C173.538 18.7935 171.654 21.2284 167.878 22.3105V22.3891C169.882 22.616 171.499 23.3491 172.729 24.5971C173.968 25.8538 174.579 27.4073 174.579 29.2662ZM195.921 28.2887C195.921 30.1127 195.534 31.7622 194.768 33.2458C193.994 34.7295 192.936 35.8815 191.568 36.6931C190.209 37.5135 188.686 37.9149 187 37.9149C184.162 37.9149 181.942 36.7542 180.325 34.4415C178.708 32.1287 177.908 28.8996 177.908 24.7455C177.908 21.4553 178.39 18.5491 179.344 16.0269C180.299 13.5047 181.65 11.5585 183.405 10.1971C185.159 8.82691 187.181 8.14618 189.478 8.14618C191.43 8.14618 192.996 8.41673 194.183 8.96655V12.0735C192.721 11.3142 191.172 10.9302 189.555 10.9302C187.052 10.9302 185.048 12.0735 183.534 14.3513C182.02 16.6291 181.271 19.6749 181.271 23.4713H181.349C182.656 20.7571 184.807 19.3956 187.817 19.3956C190.269 19.3956 192.239 20.2073 193.71 21.8305C195.181 23.48 195.921 25.6269 195.921 28.2887ZM192.592 28.7076C192.592 26.7004 192.101 25.112 191.138 23.9513C190.166 22.7905 188.815 22.2058 187.069 22.2058C185.486 22.2058 184.153 22.7731 183.078 23.8989C181.994 25.0247 181.461 26.3949 181.461 28.0007C181.461 30.0255 181.994 31.7098 183.069 33.0625C184.144 34.424 185.504 35.096 187.138 35.096C188.755 35.096 190.071 34.5025 191.086 33.3244C192.093 32.1462 192.592 30.6102 192.592 28.7076ZM215 28.6291C215 31.4305 214.088 33.6735 212.265 35.3753C210.441 37.0684 207.998 37.9236 204.953 37.9236C202.312 37.9236 200.359 37.5222 199.078 36.7193V33.2284C201.004 34.4851 202.974 35.1135 204.987 35.1135C206.991 35.1135 208.609 34.5462 209.83 33.4029C211.06 32.2684 211.671 30.7411 211.671 28.8298C211.671 26.9535 211.052 25.4873 209.813 24.4225C208.574 23.3578 206.776 22.8255 204.411 22.8255C202.527 22.8255 200.918 22.904 199.602 23.0611L200.574 8.63491H213.692V11.6022H203.387L202.811 20.0502L205.417 19.9455C208.368 19.9455 210.708 20.7047 212.419 22.2145C214.148 23.7418 215 25.8713 215 28.6291ZM39.4663 43.0029V3.128L25.3761 -1L0.0602145 8.64364L0 8.65236V37.4873L8.63647 34.0575V10.5985L25.3761 6.54036V41.0305L0.0172041 37.4873L25.3761 46.9913V47L39.4577 43.0465L39.4663 43.0029Z" fill="white"/>
</g>
<defs>
<clipPath id="clip0">
<rect width="215" height="48" fill="white"/>
</clipPath>
</defs>
</svg>
