<svg width="43" height="51" viewBox="0 0 43 51" fill="none" xmlns="http://www.w3.org/2000/svg">
<g clip-path="url(#clip0)">
<path d="M34.4199 18.1L34.3499 18C34.0766 17.6933 33.8066 17.4033 33.5399 17.13C32.0494 15.6385 30.3012 14.429 28.3799 13.56H28.3099L27.9999 13.42L27.6499 13.27L27.3699 13.16H27.2799C25.3162 12.4071 23.233 12.0142 21.1299 12C20.7499 12 20.3599 12 19.9399 12L18.8099 12.11L18.4899 12.16H18.4199C15.4702 12.6237 12.6883 13.8348 10.3392 15.678C7.99007 17.5213 6.15196 19.9352 4.99995 22.69L4.87995 22.99C3.76105 25.7553 3.36845 28.7609 3.73954 31.7209C4.11062 34.6808 5.23303 37.4965 6.99995 39.9V40L7.21995 40.29L7.92995 41.15C8.18995 41.45 8.45995 41.75 8.72995 42.02C10.4371 43.7327 12.4799 45.0741 14.7299 45.96H14.8199C16.1909 46.4755 17.6228 46.8116 19.0799 46.96H19.1999C19.8643 47.03 20.532 47.0634 21.1999 47.06C25.8236 47.0721 30.2639 45.2528 33.5499 42C34.1444 41.4032 34.6958 40.7649 35.1999 40.09L35.4199 39.78L35.4999 39.67L35.6199 39.49C37.6623 36.4973 38.7272 32.9453 38.6681 29.3226C38.609 25.6999 37.4288 22.1845 35.2899 19.26V19.2L35.08 18.92L34.6099 18.34L34.4199 18.1ZM34.4199 38.32L34.2799 38.22L34.1699 38.39L33.9999 38.6C33.149 39.7943 32.1398 40.8674 30.9999 41.79C30.9686 41.8116 30.9386 41.835 30.9099 41.86C29.9026 42.6583 28.801 43.33 27.6299 43.86L27.4699 43.91C25.4787 44.7867 23.3257 45.2364 21.1499 45.23C18.9761 45.2334 16.8248 44.7885 14.8307 43.9231C12.8365 43.0576 11.0422 41.7902 9.55995 40.2L9.13995 39.72C9.06995 39.65 9.00995 39.57 8.94995 39.5L8.80995 39.61L8.90995 39.44C8.82604 39.3529 8.74913 39.2592 8.67995 39.16C7.01087 36.9852 5.93599 34.4138 5.56081 31.6981C5.18564 28.9824 5.52305 26.2159 6.53995 23.67L6.64995 23.4C7.73857 20.8869 9.46095 18.6996 11.6485 17.0518C13.8361 15.4041 16.414 14.3526 19.1299 14H19.4899H19.5399H19.8499H20.5299C22.6196 13.9194 24.7042 14.2594 26.6599 15L27.3099 15.26L27.5499 15.36H27.6299L27.9499 15.51C29.6628 16.3333 31.2114 17.4617 32.5199 18.84L32.8699 19.22L33.0599 19.43V19.49L33.2899 19.77C35.3783 22.3742 36.5923 25.5706 36.7592 28.9045C36.9262 32.2385 36.0377 35.5402 34.2199 38.34L34.3599 38.44L34.4199 38.32Z" fill="#FCBF42"/>
<path d="M15.39 21.51C15.4722 21.6464 15.5879 21.7593 15.7263 21.8381C15.8646 21.9169 16.0208 21.9589 16.18 21.96C16.3396 21.9608 16.4966 21.9197 16.6352 21.8407C16.7739 21.7618 16.8893 21.6477 16.97 21.51C17.0509 21.372 17.0935 21.215 17.0935 21.055C17.0935 20.8951 17.0509 20.738 16.97 20.6L15.87 18.68C15.7493 18.4705 15.5504 18.3175 15.3169 18.2547C15.0834 18.1918 14.8345 18.2243 14.625 18.345C14.4155 18.4657 14.2625 18.6646 14.1996 18.8981C14.1368 19.1316 14.1693 19.3805 14.29 19.59L15.39 21.51Z" fill="#FCBF42"/>
<path d="M10.2201 24.36L12.1401 25.47C12.2815 25.5464 12.4393 25.5876 12.6001 25.59C12.7443 25.5925 12.8864 25.5544 13.0101 25.48C13.1565 25.3932 13.2783 25.2706 13.364 25.1236C13.4498 24.9766 13.4966 24.8101 13.5001 24.64C13.5001 24.4859 13.4582 24.3348 13.3789 24.2027C13.2997 24.0706 13.186 23.9625 13.0501 23.89L11.1301 22.78C11.0283 22.7175 10.9147 22.6769 10.7964 22.6608C10.6781 22.6447 10.5577 22.6533 10.443 22.6863C10.3282 22.7192 10.2215 22.7756 10.1298 22.852C10.038 22.9284 9.96321 23.0231 9.91005 23.13C9.79181 23.3247 9.74911 23.556 9.79005 23.78C9.81723 23.9014 9.86954 24.0157 9.9436 24.1156C10.0177 24.2155 10.1118 24.2987 10.2201 24.36Z" fill="#FCBF42"/>
<path d="M12.1901 29.61C12.1956 29.4907 12.1765 29.3716 12.134 29.26C12.0915 29.1484 12.0265 29.0468 11.943 28.9614C11.8595 28.8761 11.7593 28.8088 11.6487 28.7638C11.5381 28.7189 11.4194 28.6971 11.3001 28.7H9.09005C8.84871 28.7 8.61724 28.7959 8.44659 28.9665C8.27593 29.1372 8.18005 29.3687 8.18005 29.61C8.18005 29.8514 8.27593 30.0828 8.44659 30.2535C8.61724 30.4241 8.84871 30.52 9.09005 30.52H11.3001C11.419 30.5214 11.537 30.4987 11.647 30.4532C11.7569 30.4077 11.8565 30.3404 11.9397 30.2554C12.0229 30.1703 12.088 30.0693 12.131 29.9583C12.174 29.8474 12.1941 29.7289 12.1901 29.61Z" fill="#FCBF42"/>
<path d="M27.44 18.23C27.286 18.23 27.1348 18.2719 27.0027 18.3511C26.8706 18.4304 26.7625 18.5441 26.69 18.68L25.58 20.6C25.5203 20.7037 25.4816 20.8182 25.466 20.937C25.4505 21.0557 25.4586 21.1763 25.4897 21.2919C25.5525 21.5254 25.7055 21.7243 25.915 21.845C26.1246 21.9657 26.3734 21.9982 26.6069 21.9353C26.7225 21.9042 26.8309 21.8507 26.9258 21.7777C27.0207 21.7047 27.1003 21.6137 27.16 21.51L28.27 19.59C28.3484 19.4584 28.3898 19.3081 28.3898 19.155C28.3898 19.0019 28.3484 18.8516 28.27 18.72C28.1842 18.575 28.0631 18.4541 27.918 18.3684C27.7729 18.2827 27.6085 18.2351 27.44 18.23Z" fill="#FCBF42"/>
<path d="M29.55 25.48C29.6737 25.5544 29.8157 25.5925 29.96 25.59C30.1208 25.5876 30.2786 25.5464 30.42 25.47L32.34 24.36C32.5495 24.238 32.702 24.0378 32.7639 23.8034C32.8258 23.5689 32.792 23.3195 32.67 23.11C32.548 22.9005 32.3478 22.748 32.1134 22.6861C31.879 22.6242 31.6295 22.658 31.42 22.78L29.51 23.89C29.3726 23.9607 29.2577 24.0684 29.1782 24.2009C29.0987 24.3334 29.0578 24.4855 29.06 24.64C29.0635 24.8101 29.1103 24.9766 29.196 25.1236C29.2818 25.2706 29.4036 25.3933 29.55 25.48Z" fill="#FCBF42"/>
<path d="M33.47 28.7H31.26C31.0186 28.7 30.7872 28.7959 30.6165 28.9665C30.4459 29.1372 30.35 29.3686 30.35 29.61C30.35 29.8513 30.4459 30.0828 30.6165 30.2535C30.7872 30.4241 31.0186 30.52 31.26 30.52H33.47C33.7113 30.52 33.9428 30.4241 34.1134 30.2535C34.2841 30.0828 34.38 29.8513 34.38 29.61C34.38 29.3686 34.2841 29.1372 34.1134 28.9665C33.9428 28.7959 33.7113 28.7 33.47 28.7Z" fill="#FCBF42"/>
<path d="M13.06 33.72C12.9284 33.6416 12.7781 33.6003 12.625 33.6003C12.4718 33.6003 12.3215 33.6416 12.19 33.72L10.27 34.82C10.1037 34.921 9.97421 35.0726 9.90042 35.2525C9.82663 35.4325 9.81245 35.6314 9.85995 35.82C9.90754 36.0138 10.0196 36.1856 10.1776 36.3073C10.3357 36.4291 10.5305 36.4935 10.73 36.49C10.8879 36.4906 11.0433 36.4492 11.18 36.37L13.1 35.27C13.2338 35.1951 13.3458 35.0864 13.4247 34.9549C13.5037 34.8233 13.5468 34.6734 13.55 34.52C13.5399 34.3567 13.49 34.1984 13.4046 34.059C13.3192 33.9195 13.2008 33.8031 13.06 33.72Z" fill="#FCBF42"/>
<path d="M16.72 37.34C16.6185 37.2761 16.5051 37.2335 16.3866 37.215C16.2681 37.1965 16.1471 37.2024 16.0309 37.2324C15.9148 37.2624 15.806 37.3158 15.7113 37.3893C15.6165 37.4628 15.5378 37.5549 15.48 37.66L14.38 39.57C14.3172 39.6721 14.2759 39.786 14.2587 39.9047C14.2415 40.0233 14.2488 40.1442 14.28 40.26C14.3451 40.4954 14.4993 40.6963 14.71 40.82C14.8467 40.8992 15.002 40.9406 15.16 40.94C15.2397 40.9496 15.3203 40.9496 15.4 40.94C15.6327 40.8745 15.8303 40.72 15.95 40.51L17.06 38.6C17.1265 38.4966 17.1706 38.3804 17.1895 38.2589C17.2084 38.1374 17.2016 38.0133 17.1696 37.8946C17.1375 37.7758 17.081 37.6652 17.0035 37.5696C16.9261 37.4741 16.8295 37.3959 16.72 37.34Z" fill="#FCBF42"/>
<path d="M20.2999 39.41V41.62C20.2969 41.746 20.3212 41.8712 20.3713 41.9869C20.4213 42.1026 20.496 42.206 20.5899 42.29C20.7634 42.4356 20.9835 42.5137 21.2099 42.51C21.3289 42.5141 21.4474 42.494 21.5583 42.4509C21.6692 42.4079 21.7702 42.3428 21.8553 42.2596C21.9404 42.1765 22.0077 42.0769 22.0532 41.9669C22.0986 41.857 22.1214 41.739 22.1199 41.62V39.41C22.1199 39.1687 22.0241 38.9372 21.8534 38.7665C21.6828 38.5959 21.4513 38.5 21.2099 38.5C20.9686 38.5 20.7371 38.5959 20.5665 38.7665C20.3958 38.9372 20.2999 39.1687 20.2999 39.41Z" fill="#FCBF42"/>
<path d="M20.3 17.3V19.51C20.2948 19.6363 20.3182 19.7621 20.3684 19.8782C20.4186 19.9942 20.4944 20.0973 20.59 20.18C20.7634 20.3256 20.9836 20.4037 21.21 20.4C21.3293 20.4055 21.4484 20.3864 21.56 20.3439C21.6716 20.3014 21.7732 20.2364 21.8586 20.1529C21.944 20.0694 22.0112 19.9693 22.0562 19.8587C22.1012 19.748 22.1229 19.6294 22.12 19.51V17.3C22.12 17.0587 22.0242 16.8272 21.8535 16.6565C21.6828 16.4859 21.4514 16.39 21.21 16.39C20.9687 16.39 20.7372 16.4859 20.5666 16.6565C20.3959 16.8272 20.3 17.0587 20.3 17.3Z" fill="#FCBF42"/>
<path d="M26.92 37.61C26.8303 37.4532 26.696 37.3266 26.5342 37.2464C26.3723 37.1661 26.1903 37.1359 26.0112 37.1595C25.8321 37.1831 25.664 37.2594 25.5285 37.3789C25.3929 37.4983 25.296 37.6553 25.25 37.83C25.1896 38.063 25.2218 38.3103 25.34 38.52L26.45 40.43C26.52 40.5659 26.6261 40.6798 26.7566 40.7592C26.8872 40.8386 27.0372 40.8804 27.19 40.88C27.3618 40.8782 27.5303 40.8322 27.6792 40.7464C27.8281 40.6606 27.9524 40.5378 28.04 40.39C28.1184 40.2584 28.1597 40.1081 28.1597 39.955C28.1597 39.8019 28.1184 39.6516 28.04 39.52L26.92 37.61Z" fill="#FCBF42"/>
<path d="M32.09 34.76L30.18 33.65C29.9704 33.528 29.721 33.4942 29.4866 33.5561C29.2522 33.618 29.052 33.7705 28.93 33.98C28.808 34.1895 28.7742 34.4389 28.8361 34.6733C28.898 34.9078 29.0504 35.108 29.26 35.23L31.18 36.33C31.3181 36.4154 31.4775 36.4605 31.64 36.46C31.7842 36.4625 31.9263 36.4244 32.05 36.35C32.1978 36.2624 32.3205 36.1381 32.4064 35.9892C32.4922 35.8403 32.5382 35.6718 32.54 35.5C32.5403 35.3472 32.4985 35.1972 32.4191 35.0667C32.3397 34.9361 32.2258 34.83 32.09 34.76Z" fill="#FCBF42"/>
<path d="M35.48 14.07L36.91 12.32L38.31 13.45C38.4993 13.5988 38.7393 13.6674 38.9786 13.6413C39.2179 13.6151 39.4374 13.4962 39.59 13.31C39.9868 12.81 40.2797 12.2357 40.4514 11.621C40.6232 11.0062 40.6703 10.3633 40.59 9.73C40.4829 8.78059 40.0988 7.88367 39.4856 7.15093C38.8725 6.41819 38.0573 5.882 37.1417 5.60912C36.226 5.33624 35.2503 5.33872 34.3361 5.61626C33.4218 5.89381 32.6094 6.43415 32 7.17C31.8549 7.36199 31.7839 7.59988 31.8 7.84C31.8314 8.07977 31.9487 8.30003 32.13 8.46L33.54 9.59L32 11.46C29.3499 9.86069 26.379 8.86698 23.3 8.55V4.94H25.65C26.3027 4.93221 26.9264 4.66948 27.388 4.20794C27.8495 3.74641 28.1122 3.12267 28.12 2.47C28.1122 1.81733 27.8495 1.19359 27.388 0.732055C26.9264 0.270517 26.3027 0.00778612 25.65 0L16.65 0C15.9974 0.00778612 15.3736 0.270517 14.9121 0.732055C14.4505 1.19359 14.1878 1.81733 14.18 2.47C14.1878 3.12267 14.4505 3.74641 14.9121 4.20794C15.3736 4.66948 15.9974 4.93221 16.65 4.94H19V8.56C14.9931 8.9653 11.1854 10.5067 8.02487 13.0029C4.86437 15.499 2.48266 18.846 1.16002 22.65V22.77C0.960021 23.36 0.790021 23.96 0.640021 24.59V24.64C0.588585 24.7569 0.545152 24.8772 0.510021 25L0.400021 25.52C0.13981 26.8376 0.00587036 28.177 2.13121e-05 29.52C-0.00392344 32.2969 0.539782 35.0473 1.60002 37.6138C2.66026 40.1803 4.21622 42.5126 6.17884 44.477C8.14147 46.4415 10.4722 47.9997 13.0377 49.0623C15.6032 50.125 18.3531 50.6713 21.13 50.67C25.3774 50.6768 29.5279 49.4015 33.0388 47.0111C36.5496 44.6207 39.2573 41.2263 40.8077 37.272C42.3581 33.3177 42.679 28.9876 41.7284 24.8479C40.7779 20.7083 38.6001 16.9519 35.48 14.07ZM26.12 2.92C26.0617 2.98642 25.9891 3.03888 25.9078 3.0735C25.8264 3.10812 25.7383 3.12401 25.65 3.12H16.65C16.5627 3.12763 16.4748 3.11606 16.3925 3.0861C16.3102 3.05613 16.2354 3.0085 16.1735 2.94655C16.1115 2.88459 16.0639 2.80983 16.0339 2.7275C16.004 2.64517 15.9924 2.55728 16 2.47C15.9929 2.38539 16.0038 2.30024 16.032 2.22016C16.0602 2.14008 16.1051 2.0669 16.1637 2.00547C16.2223 1.94403 16.2933 1.89573 16.372 1.86375C16.4506 1.83178 16.5352 1.81687 16.62 1.82H25.62C25.7049 1.81687 25.7894 1.83178 25.8681 1.86375C25.9467 1.89573 26.0177 1.94403 26.0763 2.00547C26.1349 2.0669 26.1798 2.14008 26.208 2.22016C26.2362 2.30024 26.2472 2.38539 26.24 2.47C26.2526 2.6293 26.2102 2.78809 26.12 2.92ZM40.58 29.54C40.5785 34.3613 38.7134 39.0676 35.4597 42.6255C32.206 46.1833 27.659 48.3553 22.857 48.7865C18.055 49.2176 13.2654 47.8369 9.42992 44.9156C5.59441 41.9943 2.99046 37.7439 2.13002 33V32.89C2.13002 32.79 2.13002 32.69 2.13002 32.57V32.43C2.13002 32.31 2.13002 32.19 2.08002 32.07L1.96002 30.94C1.96002 30.84 1.96002 30.73 1.96002 30.62V30.45C1.96002 30.35 1.96002 30.25 1.96002 30.15V30C1.96002 29.86 1.96002 29.72 1.96002 29.58C1.96274 28.2979 2.08662 27.0188 2.33002 25.76L2.42002 25.36C3.45184 20.7177 6.16045 16.6194 10.0268 13.8504C13.8932 11.0815 18.6453 9.83668 23.3726 10.3545C28.1 10.8723 32.47 13.1164 35.6452 16.6567C38.8205 20.1969 40.5776 24.7844 40.58 29.54ZM35.49 11.17L34.09 12.89C33.91 12.75 33.73 12.61 33.54 12.48L35 10.73L35.49 11.17ZM34.1 7.7C34.6394 7.32973 35.2851 7.14594 35.9386 7.17663C36.5921 7.20732 37.2177 7.45081 37.72 7.87C38.2335 8.27371 38.6011 8.83396 38.7672 9.46566C38.9332 10.0974 38.8886 10.766 38.64 11.37L34.1 7.7ZM21.48 4.94V8.45H20.79V4.94H21.48Z" fill="#FCBF42"/>
</g>
<defs>
<clipPath id="clip0">
<rect width="42.26" height="50.67" fill="white"/>
</clipPath>
</defs>
</svg>
