<svg width="54" height="48" viewBox="0 0 54 48" fill="none" xmlns="http://www.w3.org/2000/svg">
<g clip-path="url(#clip0)">
<path d="M51.2 34.4V30.7C51.2 29.3 50.7 27.9 49.8 26.9V16.5C49.8 13.4 47.3 11 44.2 10.9H44.1C44.1 7.8 41.6 5.3 38.5 5.3H23.4C23.3 5.3 23.3 5.3 23.2 5.2L20 1.7C19 0.7 17.5 0 16 0H5.6C2.5 0 0 2.5 0 5.6V36C0 39.1 2.5 41.5 5.6 41.6H37.6V44C37.6 45.8 39 47.2 40.8 47.2H50C51.8 47.2 53.2 45.8 53.2 44V37.3C53.2 36.1 52.4 34.9 51.2 34.4ZM39.4 37.4C39.4 36.6 40 36 40.8 36H50C50.8 36 51.4 36.6 51.4 37.4V44C51.4 44.8 50.8 45.4 50 45.4H40.8C40 45.4 39.4 44.8 39.4 44V37.4ZM49.4 34.2H41.4V30.7C41.4 28.5 43.2 26.7 45.4 26.7C47.6 26.7 49.4 28.5 49.4 30.7V34.2ZM11.6 36V16.5C11.6 14.4 13.3 12.8 15.3 12.8H44.2C46.3 12.8 47.9 14.5 47.9 16.5V25.4C47.1 25 46.2 24.8 45.3 24.8C42.1 24.8 39.5 27.4 39.5 30.7V34.4C38.3 34.9 37.5 36.1 37.5 37.4V39.8H10.1C11.1 38.7 11.6 37.4 11.6 36ZM42.3 10.9H15.3C12.2 10.9 9.8 13.4 9.7 16.5V36C9.7 38.1 8 39.7 6 39.7H5.6C3.5 39.7 1.9 38 1.9 36V5.6C1.9 3.5 3.6 1.9 5.6 1.9H16C17 1.9 18.1 2.3 18.8 3.1L22 6.6C22.4 7 22.9 7.3 23.5 7.3H38.6C40.6 7.2 42.3 8.8 42.3 10.9Z" fill="#FCBF42"/>
</g>
<defs>
<clipPath id="clip0">
<rect width="53.3" height="47.3" fill="white"/>
</clipPath>
</defs>
</svg>
