<svg width="46" height="51" viewBox="0 0 46 51" fill="none" xmlns="http://www.w3.org/2000/svg">
<g clip-path="url(#clip0)">
<path d="M8.3 39.8L8.1 39.9C2 42.5 0 43.4 0 46.4C0 48.7 2.1 50.7 4.3 50.7H41.2C43.5 50.7 45.5 48.6 45.5 46.4C45.5 43.4 43.5 42.5 37.4 39.8L37.2 39.7C35.9 39.1 34.5 38.5 32.9 37.8C32.4 38.3 31.9 38.7 31.4 39C33.4 39.9 35.2 40.7 36.7 41.4C42.7 44 43.8 44.6 43.8 46.4C43.8 47.6 42.7 49 41.2 49H4.3C2.8 49 1.7 47.6 1.7 46.4C1.7 44.7 2.8 44 8.8 41.4C10.4 40.7 12.1 39.9 14.1 39C13.6 38.6 13.1 38.2 12.6 37.8C11 38.6 9.6 39.2 8.3 39.8Z" fill="#FCBF42"/>
<path d="M22.8 0C14.5 0 7.7 6.8 7.7 15.1V15.5H4.7C3.5 15.5 2.5 16.5 2.5 17.7V25.4C2.5 26.6 3.5 27.6 4.7 27.6H7.3C7.9 27.6 8.5 27.3 8.9 26.9L9.2 26.5L9.6 27C9.6 27.1 9.7 27.1 9.8 27.2L9.9 27.4C11.7 34.5 16.9 39.3 22.8 39.3C28.8 39.3 34.2 34.2 35.8 26.9L36 26L36.5 26.7C36.9 27.3 37.5 27.6 38.2 27.6H40.8C42 27.6 43 26.6 43 25.4V17.7C43 16.5 42 15.5 40.8 15.5H37.8V15.1C37.9 6.8 31.1 0 22.8 0ZM7.7 25.8H4.3V17.2H7.7V25.8ZM22.8 37.5C18.6 37.5 14.7 34.6 12.6 29.9L12.2 28.9L13.2 29.3C16 30.5 19.9 31.3 22.8 31.3C23.3 31.3 23.7 30.9 23.7 30.4C23.7 29.9 23.3 29.5 22.8 29.5C18.1 29.5 13.2 27.6 11.6 26.3L11.5 26.2V26.1C11.2 24.7 11.1 23.4 11.1 22.1C11.1 13.7 16.4 6.8 22.9 6.8C29.4 6.8 34.7 13.7 34.7 22.1C34.7 30.5 29.3 37.5 22.8 37.5ZM36.1 15.3L36 17.6L35.3 15.5C33.2 9.2 28.3 5.1 22.8 5.1C17.3 5.1 12.5 9.2 10.3 15.5L9.6 17.6L9.5 15.3C9.5 15.1 9.5 15.1 9.5 15C9.5 7.7 15.5 1.7 22.8 1.7C30.1 1.7 36.1 7.7 36.1 15C36.1 15.1 36.1 15.2 36.1 15.3ZM41.3 17.2V25.8H37.9V17.2H41.3Z" fill="#FCBF42"/>
</g>
<defs>
<clipPath id="clip0">
<rect width="45.6" height="50.8" fill="white"/>
</clipPath>
</defs>
</svg>
