<svg width="50" height="50" viewBox="0 0 50 50" fill="none" xmlns="http://www.w3.org/2000/svg">
<g clip-path="url(#clip0)">
<path d="M49.1667 18.3333H32.3229C30.5625 16.1667 28.3438 14.4062 25.8333 13.1771V9.58333L28.8333 7.33333C29.0417 7.17708 29.1667 6.92708 29.1667 6.66667V0.833333C29.1667 0.375 28.7917 0 28.3333 0H25C24.7812 0 24.5625 0.0833333 24.4062 0.239583L23.3333 1.32292L22.2604 0.239583C22.1042 0.0833333 21.8854 0 21.6667 0H16.6667C16.4479 0 16.2292 0.0833333 16.0729 0.239583L15 1.32292L13.9271 0.239583C13.7708 0.0833333 13.5521 0 13.3333 0H10C9.54167 0 9.16667 0.375 9.16667 0.833333V6.66667C9.16667 6.92708 9.29167 7.17708 9.5 7.33333L12.5 9.58333V13.1875C6.1875 16.2396 0 24.4375 0 34.9583C0 44.5208 6.98958 50 19.1667 50C21.1458 50.0104 23.1146 49.8333 25.0625 49.4792C25.1875 49.7917 25.4896 50 25.8333 50H49.1667C49.625 50 50 49.625 50 49.1667V19.1667C50 18.7083 49.625 18.3333 49.1667 18.3333ZM10.8333 6.25V1.66667H12.9896L14.4167 3.09375C14.7396 3.41667 15.2708 3.41667 15.5937 3.09375L17.0104 1.66667H21.3229L22.75 3.09375C23.0729 3.41667 23.6042 3.41667 23.9271 3.09375L25.3438 1.66667H27.5V6.25L24.7188 8.33333H13.6146L10.8333 6.25ZM24.1667 10V12.5H14.1667V10H24.1667ZM25 38.7292C21.1042 41.9583 15.3229 41.4167 12.0938 37.5104C8.86458 33.6146 9.40625 27.8333 13.3125 24.6042C16.7083 21.7917 21.6146 21.7917 25 24.6042V38.7292ZM25 19.1667V22.5521C19.9688 19.3229 13.2604 20.7812 10.0312 25.8229C6.80208 30.8646 8.26042 37.5625 13.3021 40.7917C16.8646 43.0729 21.4375 43.0729 25 40.7917V47.8021C23.0729 48.1667 21.125 48.3542 19.1667 48.3438C13.9062 48.3438 1.66667 47.0417 1.66667 34.9688C1.66667 26.9792 6.44792 17.0625 14.4479 14.1667H23.8958C26.25 15.0625 28.375 16.4896 30.0937 18.3333H25.8333C25.375 18.3333 25 18.7083 25 19.1667ZM48.3333 48.3333H26.6667V26.6667H48.3333V48.3333ZM48.3333 25H26.6667V20H48.3333V25Z" fill="#FCBF42"/>
<path d="M32.5 28.3333H29.1667C28.7084 28.3333 28.3334 28.7083 28.3334 29.1667V32.5C28.3334 32.9583 28.7084 33.3333 29.1667 33.3333H32.5C32.9584 33.3333 33.3334 32.9583 33.3334 32.5V29.1667C33.3334 28.7083 32.9584 28.3333 32.5 28.3333ZM31.6667 31.6667H30V30H31.6667V31.6667Z" fill="#FCBF42"/>
<path d="M39.1667 28.3333H35.8333C35.375 28.3333 35 28.7083 35 29.1667V32.5C35 32.9583 35.375 33.3333 35.8333 33.3333H39.1667C39.625 33.3333 40 32.9583 40 32.5V29.1667C40 28.7083 39.625 28.3333 39.1667 28.3333ZM38.3333 31.6667H36.6667V30H38.3333V31.6667Z" fill="#FCBF42"/>
<path d="M45.8333 28.3333H42.5C42.0416 28.3333 41.6666 28.7083 41.6666 29.1667V32.5C41.6666 32.9583 42.0416 33.3333 42.5 33.3333H45.8333C46.2916 33.3333 46.6666 32.9583 46.6666 32.5V29.1667C46.6666 28.7083 46.2916 28.3333 45.8333 28.3333ZM45 31.6667H43.3333V30H45V31.6667Z" fill="#FCBF42"/>
<path d="M32.5 35H29.1667C28.7084 35 28.3334 35.375 28.3334 35.8333V39.1667C28.3334 39.625 28.7084 40 29.1667 40H32.5C32.9584 40 33.3334 39.625 33.3334 39.1667V35.8333C33.3334 35.375 32.9584 35 32.5 35ZM31.6667 38.3333H30V36.6667H31.6667V38.3333Z" fill="#FCBF42"/>
<path d="M39.1667 35H35.8333C35.375 35 35 35.375 35 35.8333V39.1667C35 39.625 35.375 40 35.8333 40H39.1667C39.625 40 40 39.625 40 39.1667V35.8333C40 35.375 39.625 35 39.1667 35ZM38.3333 38.3333H36.6667V36.6667H38.3333V38.3333Z" fill="#FCBF42"/>
<path d="M32.5 41.6667H29.1667C28.7084 41.6667 28.3334 42.0417 28.3334 42.5V45.8333C28.3334 46.2917 28.7084 46.6667 29.1667 46.6667H32.5C32.9584 46.6667 33.3334 46.2917 33.3334 45.8333V42.5C33.3334 42.0417 32.9584 41.6667 32.5 41.6667ZM31.6667 45H30V43.3333H31.6667V45Z" fill="#FCBF42"/>
<path d="M39.1667 41.6667H35.8333C35.375 41.6667 35 42.0417 35 42.5V45.8333C35 46.2917 35.375 46.6667 35.8333 46.6667H39.1667C39.625 46.6667 40 46.2917 40 45.8333V42.5C40 42.0417 39.625 41.6667 39.1667 41.6667ZM38.3333 45H36.6667V43.3333H38.3333V45Z" fill="#FCBF42"/>
<path d="M45.8333 35H42.5C42.0416 35 41.6666 35.375 41.6666 35.8333V45.8333C41.6666 46.2917 42.0416 46.6667 42.5 46.6667H45.8333C46.2916 46.6667 46.6666 46.2917 46.6666 45.8333V35.8333C46.6666 35.375 46.2916 35 45.8333 35ZM45 45H43.3333V36.6667H45V45Z" fill="#FCBF42"/>
<path d="M46.6667 21.6667H45V23.3333H46.6667V21.6667Z" fill="#FCBF42"/>
<path d="M43.3333 21.6667H41.6666V23.3333H43.3333V21.6667Z" fill="#FCBF42"/>
<path d="M40 21.6667H38.3334V23.3333H40V21.6667Z" fill="#FCBF42"/>
<path d="M22.698 27.5521H15.4271V29.2188H22.698V27.5521Z" fill="#FCBF42"/>
<path d="M15.4271 32.5521H18.2292V36.7188H19.8959V32.5521H22.698V30.8854H15.4271V32.5521Z" fill="#FCBF42"/>
</g>
<defs>
<clipPath id="clip0">
<rect width="50" height="50" fill="white"/>
</clipPath>
</defs>
</svg>
