<svg width="57" height="50" viewBox="0 0 57 50" fill="none" xmlns="http://www.w3.org/2000/svg">
<path d="M26.3 29.2H26.1H25.9C17.8 29.2 9.7 29.2 1.6 29.2H1.2H0.9H0.8C0.3 29.2 0 29.6 0 30V48.9C0 49.3 0.3 49.7 0.8 49.7H1H26.2H26.4C26.8 49.7 27.2 49.4 27.2 48.9V30C27.1 29.6 26.7 29.2 26.3 29.2ZM3 30.8H3.4H3.8C10.4 30.8 17.1 30.8 23.7 30.8H24L19.3 34.9L13.5 39.9L7.7 34.9L3 30.8ZM1.5 31.5L6.7 36L10.7 39.4L6.7 42.8L1.5 47.3V31.5ZM3 48.1L7.7 44L11.8 40.4L13 41.4C13.3 41.7 13.7 41.6 14 41.4L15.1 40.4L19.2 44L23.9 48.1H3ZM25.5 47.4L20.3 42.9L16.3 39.5L20.3 36.1L25.5 31.6V47.4Z" fill="#FCBF42"/>
<path d="M51.1 46.1C50 46.1 48.9 45.8 48 45.1C45 45.6 41.8 44.7 39.6 42.4C37.3 40.1 36.4 37 36.9 34C36.3 33.1 35.9 32 35.9 30.9C35.9 27.8 38.4 25.3 41.5 25.3C42.6 25.3 43.7 25.6 44.6 26.3C51.1 25.2 56.9 30.8 55.7 37.4C56.3 38.3 56.7 39.4 56.7 40.5C56.7 43.6 54.2 46.1 51.1 46.1ZM48.7 43.6C49.4 44.1 50.2 44.4 51.1 44.4C53.3 44.4 55.1 42.6 55.1 40.4C55.1 39.5 54.8 38.7 54.3 38C54.2 37.8 54.1 37.6 54.1 37.3C55.3 31.6 50.3 26.6 44.6 27.8C44.4 27.9 44.1 27.8 43.9 27.6C43.2 27.1 42.4 26.8 41.5 26.8C39.3 26.8 37.5 28.6 37.5 30.8C37.5 31.7 37.8 32.5 38.3 33.2C38.4 33.4 38.5 33.6 38.5 33.9C37.3 39.6 42.3 44.6 48 43.4C48.3 43.4 48.5 43.5 48.7 43.6ZM50.3 38.1C50.3 35.9 47.5 35.2 46.9 35C45.6 34.6 43.9 34.2 43.9 33.3C43.9 32.4 45 31.7 46.3 31.7C47.3 31.7 48.3 32.2 48.6 32.8C48.8 33.2 49.3 33.4 49.7 33.2C50.1 33 50.3 32.5 50.1 32.1C49.5 30.7 47.9 30 46.4 30C44 30 42.4 31.5 42.4 33.2C42.4 35.4 45.2 36.1 45.8 36.3C47.1 36.7 48.8 37.1 48.8 38C48.8 38.9 47.7 39.6 46.4 39.6C45.4 39.6 44.4 39.1 44.1 38.5C43.9 38.1 43.4 37.9 43 38.1C42.6 38.3 42.4 38.8 42.6 39.2C43.2 40.6 44.8 41.3 46.3 41.3C48.7 41.3 50.3 39.8 50.3 38.1Z" fill="#FCBF42"/>
<path d="M36.5 7.6C36.5 7.3 36.5 7 36.5 6.7C36.5 3 33.5 0 29.8 0C27.1 0 24.5 1.4 23.5 3.6C22.6 3.3 21.9 3.3 21.2 3.3C19.5 3.3 17.9 3.9 16.6 5.2C15.3 6.2 14.6 7.6 14.4 9.2C12.8 9.5 11.2 10.2 10.2 11.4C8.90005 12.7 8.30005 14.3 8.30005 16C8.30005 19.7 11.3 22.7 15 22.7H17H32.8H33.7001C38 22.7 41.6 19.1 41.6 14.8C41.4 11.6 39.4 8.8 36.5 7.6ZM33.5 21.1H32.8H17H15.1C12.2 21.1 9.90005 18.8 9.90005 15.9C9.90005 13 12.2 10.7 15.1 10.7C16.1 10.7 16.8 10.8 17.4 11.1C17.5 11.1 17.7 11.2 17.8 11.2C18.1 11.2 18.4 11.1 18.5 10.8C18.6 10.7 18.6 10.4 18.5 10.2C18.5 9.9 18.4 9.8 18.2 9.8C17.5 9.4 16.8 9.2 15.9 9.1C16.3 6.7 18.5 4.8 20.9 4.8C21.9 4.8 22.5 4.8 23.2 5.2C23.3 5.3 23.6 5.3 23.9 5.2C24.2 5.1 24.3 4.9 24.3 4.8C25 3 27.2 1.6 29.6 1.6C32.5 1.6 34.8 3.9 34.8 6.8C34.8 7.2 34.8001 7.5 34.7001 7.9C34.6 8.3 34.8 8.8 35.3 8.9C37.9 9.6 39.7001 12.2 39.7001 14.9C39.6 18.4 36.9 21.1 33.5 21.1Z" fill="#FCBF42"/>
</svg>
