<svg width="150" height="33" viewBox="0 0 150 33" fill="none" xmlns="http://www.w3.org/2000/svg">
<path d="M56.2275 15.8151C56.2275 17.9523 55.8434 19.8276 55.0752 21.4351C54.307 23.0425 53.2028 24.2846 51.7624 25.1492C50.3221 26.0138 48.6657 26.4522 46.7872 26.4522C44.9748 26.4522 43.3604 26.0321 41.9501 25.1858C40.5397 24.3394 39.4475 23.1399 38.6733 21.5873C37.8991 20.0346 37.515 18.275 37.515 16.3022C37.515 14.1833 37.9051 12.3201 38.6913 10.7005C39.4715 9.08699 40.5938 7.85097 42.0581 6.98636C43.5225 6.12175 45.2149 5.68944 47.1353 5.68944C48.8937 5.68944 50.4661 6.11566 51.8645 6.962C53.2568 7.80835 54.3311 9.00784 55.0932 10.5483C55.8494 12.0888 56.2275 13.8484 56.2275 15.8151ZM53.7969 16.1256C53.7969 13.5135 53.1968 11.4738 51.9905 10.0064C50.7842 8.54509 49.1038 7.80835 46.9553 7.80835C45.605 7.80835 44.3927 8.15541 43.3184 8.84953C42.2502 9.54365 41.416 10.53 40.8278 11.8087C40.2397 13.0873 39.9456 14.5182 39.9456 16.0891C39.9456 17.6965 40.2277 19.1274 40.7978 20.3817C41.3619 21.636 42.1721 22.6102 43.2164 23.2922C44.2666 23.9741 45.4549 24.3212 46.7932 24.3212C48.9838 24.3212 50.7002 23.5905 51.9425 22.1353C53.1788 20.6861 53.7969 18.6768 53.7969 16.1256ZM66.1779 6.89503C65.7338 6.6393 65.2357 6.51752 64.6715 6.51752C63.0872 6.51752 62.301 7.52826 62.301 9.55583V11.7661H65.6138V13.7084H62.301V26.0991H60.0384V13.7145H57.6378V11.7722H60.0384V9.44623C60.0384 7.99101 60.4645 6.81587 61.3047 5.92082C62.1509 5.02577 63.2312 4.5752 64.5335 4.5752C65.2237 4.5752 65.7698 4.66044 66.1779 4.83092V6.89503Z" fill="#D83B01"/>
<path d="M73.9738 6.89503C73.5296 6.63931 73.0315 6.51753 72.4674 6.51753C70.883 6.51753 70.0968 7.52827 70.0968 9.55584V11.7661H73.4096V13.7084H70.0968V26.0991H67.8343V13.7145H65.4337V11.7722H67.8343V9.44624C67.8343 7.99102 68.2604 6.81588 69.1066 5.92083C69.9528 5.02577 71.0271 4.5752 72.3354 4.5752C73.0255 4.5752 73.5717 4.66045 73.9798 4.83093L73.9738 6.89503ZM78.1508 6.63322C78.1508 7.06552 78.0067 7.41867 77.7067 7.70484C77.4126 7.99102 77.0645 8.13106 76.6564 8.13106C76.2423 8.13106 75.8942 7.99711 75.6061 7.71702C75.3241 7.44303 75.18 7.0777 75.18 6.63322C75.18 6.23136 75.3181 5.88429 75.6001 5.59203C75.8822 5.29368 76.2303 5.15364 76.6564 5.15364C77.0765 5.15364 77.4306 5.29368 77.7187 5.58594C78.0067 5.87212 78.1508 6.21918 78.1508 6.63322ZM77.7607 26.1052H75.4981V11.7661H77.7607V26.1052ZM90.6758 25.4476C89.5835 26.1174 88.2872 26.4583 86.7988 26.4583C85.5145 26.4583 84.3562 26.1539 83.33 25.5572C82.3038 24.9544 81.5056 24.102 80.9354 22.9999C80.3653 21.8978 80.0832 20.6618 80.0832 19.2918C80.0832 16.9233 80.7494 15.0175 82.0877 13.5805C83.426 12.1436 85.2085 11.4251 87.435 11.4251C88.6713 11.4251 89.7575 11.6687 90.7058 12.1558V14.506C89.6495 13.7571 88.5273 13.3857 87.339 13.3857C85.8746 13.3857 84.6863 13.9154 83.7741 14.9749C82.8559 16.0343 82.3998 17.4043 82.3998 19.0848C82.3998 20.7592 82.8379 22.0744 83.7021 23.0486C84.5723 24.0167 85.7366 24.5038 87.2009 24.5038C88.4312 24.5038 89.5955 24.0959 90.6758 23.2739V25.4476ZM104.581 19.511H94.6067C94.6427 21.1245 95.0628 22.3606 95.873 23.213C96.6772 24.0654 97.7935 24.4917 99.2158 24.4917C100.818 24.4917 102.277 23.968 103.591 22.9268V25.0701C102.361 25.9956 100.722 26.4522 98.6757 26.4522C96.6592 26.4522 95.0868 25.7947 93.9526 24.4734C92.8243 23.1521 92.2541 21.3255 92.2541 18.9935C92.2541 17.5748 92.5362 16.2779 93.1063 15.1088C93.6705 13.9398 94.4507 13.0325 95.4469 12.3871C96.4431 11.7417 97.5474 11.419 98.7597 11.419C100.59 11.419 102.018 12.0218 103.045 13.2335C104.071 14.4391 104.581 16.1317 104.581 18.3054V19.511ZM102.265 17.5626C102.247 16.2352 101.928 15.2062 101.316 14.4756C100.704 13.7449 99.84 13.3796 98.7297 13.3796C97.6794 13.3796 96.7852 13.7632 96.0411 14.5243C95.2969 15.2915 94.8288 16.3022 94.6367 17.5626H102.265ZM121.799 20.4182C121.799 22.2266 121.157 23.6879 119.879 24.7961C118.6 25.9043 116.92 26.4522 114.844 26.4522C112.959 26.4522 111.459 26.0869 110.342 25.3624V22.8964C111.675 23.9619 113.205 24.4917 114.922 24.4917C116.314 24.4917 117.418 24.1446 118.24 23.4505C119.063 22.7563 119.477 21.8126 119.477 20.6314C119.477 18.0071 117.634 16.698 113.955 16.698H112.311V14.7496H113.871C117.13 14.7496 118.757 13.5196 118.757 11.0537C118.757 8.77647 117.514 7.63787 115.03 7.63787C113.631 7.63787 112.323 8.11279 111.099 9.06265V6.83415C112.359 6.06696 113.859 5.68336 115.594 5.68336C117.232 5.68336 118.552 6.12176 119.561 7.00463C120.569 7.88751 121.073 9.04438 121.073 10.4692C121.073 13.1117 119.759 14.8105 117.124 15.5655V15.6203C118.522 15.7786 119.651 16.29 120.509 17.1607C121.373 18.0375 121.799 19.1213 121.799 20.4182ZM136.689 19.7363C136.689 21.0089 136.419 22.1596 135.885 23.1947C135.344 24.2298 134.606 25.0336 133.652 25.5998C132.704 26.1722 131.642 26.4522 130.465 26.4522C128.485 26.4522 126.936 25.6424 125.808 24.0289C124.68 22.4154 124.122 20.1625 124.122 17.2643C124.122 14.9688 124.458 12.9412 125.124 11.1815C125.79 9.42189 126.732 8.06408 127.957 7.11423C129.181 6.15829 130.591 5.68336 132.194 5.68336C133.556 5.68336 134.648 5.87212 135.477 6.25571V8.42332C134.456 7.8936 133.376 7.62569 132.248 7.62569C130.501 7.62569 129.103 8.42332 128.047 10.0125C126.99 11.6017 126.468 13.7267 126.468 16.3753H126.522C127.435 14.4817 128.935 13.5318 131.035 13.5318C132.746 13.5318 134.12 14.0981 135.146 15.2306C136.173 16.3814 136.689 17.8792 136.689 19.7363ZM134.366 20.0286C134.366 18.6281 134.024 17.52 133.352 16.7102C132.674 15.9004 131.732 15.4924 130.513 15.4924C129.409 15.4924 128.479 15.8882 127.729 16.6736C126.972 17.4591 126.6 18.415 126.6 19.5354C126.6 20.948 126.972 22.1231 127.723 23.0669C128.473 24.0167 129.421 24.4856 130.561 24.4856C131.69 24.4856 132.608 24.0715 133.316 23.2495C134.018 22.4276 134.366 21.3559 134.366 20.0286ZM150 19.9738C150 21.9283 149.364 23.4931 148.092 24.6804C146.819 25.8616 145.115 26.4583 142.99 26.4583C141.148 26.4583 139.786 26.1782 138.891 25.6181V23.1826C140.236 24.0593 141.61 24.4977 143.014 24.4977C144.413 24.4977 145.541 24.102 146.393 23.3043C147.251 22.5128 147.677 21.4473 147.677 20.1138C147.677 18.8047 147.245 17.7818 146.381 17.039C145.517 16.2961 144.263 15.9247 142.612 15.9247C141.298 15.9247 140.176 15.9795 139.257 16.0891L139.936 6.02434H149.088V8.09453H141.898L141.496 13.9885L143.314 13.9154C145.373 13.9154 147.005 14.4451 148.2 15.4985C149.406 16.564 150 18.0497 150 19.9738ZM27.5346 30.002V2.18231L17.7042 -0.697693L0.0420101 6.03043L0 6.03651V26.1539L6.02545 23.761V7.39432L17.7042 4.56303V28.6259L0.0120029 26.1539L17.7042 32.7846V32.7907L27.5286 30.0325L27.5346 30.002Z" fill="#D83B01"/>
</svg>
