<svg width="58" height="51" viewBox="0 0 58 51" fill="none" xmlns="http://www.w3.org/2000/svg">
<path d="M57.46 23.39C57.3045 23.2355 57.0942 23.1488 56.875 23.1488C56.6558 23.1488 56.4455 23.2355 56.29 23.39L54.1 25.57V25.13C54.1066 21.8306 53.4621 18.5623 52.2034 15.5123C50.9447 12.4624 49.0966 9.69081 46.7649 7.35636C44.4332 5.0219 41.6638 3.17047 38.6154 1.90813C35.567 0.645795 32.2995 -0.00262968 29 8.01503e-06C28.7969 0.0224077 28.6091 0.118973 28.4728 0.271204C28.3364 0.423436 28.261 0.620629 28.261 0.825008C28.261 1.02939 28.3364 1.22658 28.4728 1.37881C28.6091 1.53104 28.7969 1.62761 29 1.65001C35.2239 1.6553 41.1916 4.12941 45.5935 8.52945C49.9954 12.9295 52.4721 18.8961 52.48 25.12V25.58L50.3 23.4C50.1445 23.2455 49.9342 23.1588 49.715 23.1588C49.4958 23.1588 49.2855 23.2455 49.13 23.4C49.0514 23.4747 48.9887 23.5647 48.9459 23.6644C48.9031 23.7641 48.881 23.8715 48.881 23.98C48.881 24.0885 48.9031 24.1959 48.9459 24.2956C48.9887 24.3953 49.0514 24.4853 49.13 24.56L52.72 28.15C52.8741 28.3047 53.0818 28.3943 53.3 28.4C53.4084 28.3987 53.5155 28.376 53.6151 28.3331C53.7146 28.2902 53.8047 28.2279 53.88 28.15L57.47 24.56C57.6232 24.4032 57.7081 24.1922 57.7062 23.9729C57.7044 23.7537 57.6159 23.5442 57.46 23.39Z" fill="#FCBF42"/>
<path d="M29.0001 48.6C22.7762 48.5921 16.8096 46.1154 12.4095 41.7135C8.00949 37.3116 5.53538 31.3439 5.53009 25.12V24.67L7.72009 26.85C7.87895 26.9852 8.08288 27.0555 8.2913 27.0472C8.49971 27.0388 8.69733 26.9522 8.84482 26.8047C8.9923 26.6572 9.07886 26.4596 9.08725 26.2512C9.09563 26.0428 9.02525 25.8389 8.89009 25.68L5.30009 22.09C5.14382 21.9386 4.93748 21.8496 4.72009 21.84C4.61168 21.8413 4.50461 21.864 4.40505 21.9069C4.3055 21.9498 4.21544 22.0121 4.14009 22.09L0.550087 25.68C0.393577 25.8328 0.303732 26.0413 0.300087 26.26C0.299015 26.3688 0.320702 26.4765 0.363756 26.5764C0.40681 26.6763 0.470279 26.7661 0.550087 26.84C0.706832 26.9921 0.916665 27.0772 1.13509 27.0772C1.35351 27.0772 1.56334 26.9921 1.72009 26.84L3.90009 24.66V25.11C3.89219 28.4103 4.53574 31.6797 5.79384 34.7307C7.05195 37.7818 8.89986 40.5546 11.2317 42.8901C13.5635 45.2256 16.3333 47.078 19.3824 48.3409C22.4314 49.6039 25.6998 50.2526 29.0001 50.25C29.1161 50.2628 29.2334 50.251 29.3445 50.2153C29.4556 50.1797 29.558 50.1211 29.6449 50.0432C29.7318 49.9654 29.8013 49.8701 29.8489 49.7636C29.8965 49.657 29.9211 49.5417 29.9211 49.425C29.9211 49.3083 29.8965 49.193 29.8489 49.0864C29.8013 48.9799 29.7318 48.8846 29.6449 48.8068C29.558 48.7289 29.4556 48.6703 29.3445 48.6346C29.2334 48.599 29.1161 48.5872 29.0001 48.6Z" fill="#FCBF42"/>
<path d="M45.85 20.37C45.8478 20.0752 45.7901 19.7835 45.68 19.51L44.76 17.3C44.6472 17.028 44.482 16.781 44.2736 16.5729C44.0653 16.3649 43.818 16.2 43.5459 16.0876C43.2737 15.9752 42.9821 15.9176 42.6877 15.918C42.3933 15.9184 42.1018 15.9768 41.83 16.09L40.41 16.67C39.5712 15.5208 38.5592 14.5088 37.41 13.67L37.99 12.25C38.1001 11.9765 38.1578 11.6848 38.16 11.39C38.1584 10.9464 38.0268 10.5129 37.7816 10.1433C37.5363 9.77362 37.1881 9.48392 36.78 9.30999L34.57 8.39999C34.2969 8.28695 34.0041 8.22883 33.7085 8.22897C33.4129 8.22911 33.1203 8.2875 32.8472 8.4008C32.5742 8.5141 32.3262 8.68009 32.1173 8.88928C31.9085 9.09848 31.7429 9.34677 31.63 9.61999L31.05 11.03C29.6639 10.8301 28.2562 10.8301 26.87 11.03L26.3 9.66999C26.0699 9.12971 25.6385 8.70023 25.0972 8.47251C24.5559 8.24479 23.9472 8.23671 23.4 8.44999L21.19 9.35999C20.7793 9.53131 20.4282 9.82009 20.181 10.1901C19.9337 10.5601 19.8012 10.9949 19.8 11.44C19.801 11.7359 19.8623 12.0285 19.98 12.3L20.56 13.72C19.4108 14.5588 18.3988 15.5708 17.56 16.72L16.14 16.14C15.5887 15.9154 14.9714 15.9154 14.42 16.14C13.9151 16.3734 13.5156 16.7872 13.3 17.3L12.3 19.51C12.1899 19.7835 12.1322 20.0752 12.13 20.37C12.1312 20.815 12.2637 21.2498 12.511 21.6199C12.7582 21.9899 13.1093 22.2787 13.52 22.45L14.93 23.03C14.7301 24.4162 14.7301 25.8238 14.93 27.21L13.52 27.79C13.1077 27.9591 12.7552 28.2473 12.5076 28.6179C12.26 28.9884 12.1285 29.4243 12.13 29.87C12.1322 30.1648 12.1899 30.4565 12.3 30.73L13.3 32.94C13.4127 33.2132 13.5784 33.4613 13.7875 33.6702C13.9965 33.8791 14.2449 34.0445 14.5181 34.157C14.7914 34.2695 15.0843 34.3268 15.3798 34.3256C15.6753 34.3244 15.9677 34.2647 16.24 34.15L17.66 33.57C18.4988 34.7192 19.5108 35.7312 20.66 36.57L20.08 37.99C19.9631 38.2582 19.9018 38.5474 19.9 38.84C19.9012 39.285 20.0337 39.7198 20.281 40.0899C20.5282 40.4599 20.8793 40.7487 21.29 40.92L23.5 41.84C24.0409 42.0206 24.63 41.99 25.1493 41.7545C25.6685 41.519 26.0796 41.0959 26.3 40.57L26.88 39.15C28.2655 39.3592 29.6745 39.3592 31.06 39.15L31.64 40.57C31.7512 40.8448 31.9165 41.0944 32.126 41.304C32.3356 41.5136 32.5852 41.6788 32.86 41.79C33.1369 41.9002 33.432 41.9578 33.73 41.96C34.0217 41.9587 34.3103 41.901 34.58 41.79L36.79 40.87C37.2013 40.7005 37.5524 40.4118 37.7983 40.0412C38.0442 39.6705 38.1737 39.2348 38.17 38.79C38.1716 38.4981 38.1138 38.2088 38 37.94L37.42 36.52C38.5692 35.6812 39.5812 34.6692 40.42 33.52L41.84 34.1C42.1118 34.2131 42.4033 34.2716 42.6977 34.272C42.9921 34.2724 43.2837 34.2148 43.5559 34.1024C43.828 33.99 44.0753 33.8251 44.2836 33.6171C44.492 33.409 44.6572 33.162 44.77 32.89L45.69 30.68C45.8001 30.4065 45.8578 30.1148 45.86 29.82C45.8589 29.3749 45.7263 28.9401 45.4791 28.5701C45.2318 28.2001 44.8808 27.9113 44.47 27.74L43.05 27.16C43.2592 25.7745 43.2592 24.3655 43.05 22.98L44.47 22.4C44.8712 22.2305 45.2148 21.9488 45.4596 21.5887C45.7045 21.2285 45.84 20.8053 45.85 20.37ZM43.85 20.92L41.85 21.76C41.6778 21.8372 41.5362 21.9695 41.4474 22.1361C41.3587 22.3026 41.328 22.494 41.36 22.68C41.67 24.2885 41.67 25.9415 41.36 27.55C41.3178 27.738 41.3439 27.9348 41.4337 28.1053C41.5235 28.2757 41.6711 28.4086 41.85 28.48L43.85 29.32C43.9597 29.3641 44.0536 29.4401 44.1196 29.5381C44.1855 29.6362 44.2205 29.7518 44.22 29.87C44.2386 29.9421 44.2386 30.0178 44.22 30.09L43.31 32.31C43.2503 32.4493 43.1393 32.5603 43 32.62C42.8526 32.68 42.6875 32.68 42.54 32.62L40.54 31.78C40.3642 31.708 40.1689 31.6985 39.9869 31.7531C39.8049 31.8077 39.6472 31.9231 39.54 32.08C38.6371 33.453 37.4631 34.6271 36.09 35.53C35.9331 35.6371 35.8177 35.7949 35.7631 35.9769C35.7085 36.1589 35.718 36.3541 35.79 36.53L36.63 38.53C36.6429 38.6028 36.6429 38.6772 36.63 38.75C36.6319 38.8685 36.5975 38.9847 36.5313 39.0831C36.4652 39.1814 36.3705 39.2571 36.26 39.3L34.05 40.22C33.9042 40.2703 33.7458 40.2703 33.6 40.22C33.5282 40.1903 33.463 40.1468 33.4081 40.0919C33.3532 40.037 33.3097 39.9718 33.28 39.9L32.44 37.9C32.3624 37.7259 32.2285 37.5829 32.0598 37.494C31.8912 37.4051 31.6975 37.3755 31.51 37.41C29.9025 37.7301 28.2476 37.7301 26.64 37.41C26.4536 37.3723 26.26 37.4006 26.0921 37.49C25.9243 37.5794 25.7928 37.7243 25.72 37.9L24.88 39.9C24.8162 40.0435 24.6995 40.1568 24.5542 40.2164C24.4089 40.276 24.2462 40.2773 24.1 40.22L21.9 39.3C21.7895 39.2571 21.6949 39.1814 21.6287 39.0831C21.5626 38.9847 21.5281 38.8685 21.53 38.75C21.5165 38.6773 21.5165 38.6027 21.53 38.53L22.38 36.53C22.4492 36.3528 22.4562 36.1574 22.3999 35.9758C22.3436 35.7941 22.2273 35.637 22.07 35.53C20.7015 34.6215 19.5285 33.4485 18.62 32.08C18.5454 31.9683 18.4442 31.8769 18.3255 31.8141C18.2068 31.7513 18.0743 31.7189 17.94 31.72C17.8305 31.7197 17.722 31.74 17.62 31.78L15.62 32.62C15.4755 32.6796 15.3132 32.6793 15.1688 32.6193C15.0244 32.5593 14.9098 32.4445 14.85 32.3L13.94 30.1C13.9093 30.0271 13.8923 29.9491 13.89 29.87C13.8895 29.7518 13.9245 29.6362 13.9905 29.5381C14.0564 29.4401 14.1504 29.3641 14.26 29.32L16.26 28.48C16.4117 28.4195 16.5416 28.3146 16.6326 28.1789C16.7237 28.0433 16.7715 27.8833 16.77 27.72C16.775 27.6668 16.775 27.6132 16.77 27.56C16.4499 25.9491 16.4499 24.2909 16.77 22.68C16.807 22.4924 16.7773 22.2978 16.686 22.1298C16.5947 21.9618 16.4475 21.831 16.27 21.76L14.27 20.92C14.1604 20.8759 14.0664 20.7999 14.0005 20.7019C13.9345 20.6038 13.8995 20.4882 13.9 20.37C13.9024 20.2941 13.9194 20.2194 13.95 20.15L14.86 17.93C14.8898 17.8595 14.9335 17.7957 14.9885 17.7424C15.0435 17.6892 15.1086 17.6475 15.18 17.62C15.2512 17.59 15.3277 17.5746 15.405 17.5746C15.4823 17.5746 15.5588 17.59 15.63 17.62L17.63 18.46C17.8059 18.532 18.0011 18.5415 18.1831 18.4869C18.3651 18.4323 18.5229 18.3169 18.63 18.16C19.5441 16.796 20.7161 15.624 22.08 14.71C22.2387 14.6043 22.3561 14.4471 22.4126 14.265C22.469 14.0829 22.4611 13.8869 22.39 13.71L21.55 11.71C21.5202 11.6403 21.5033 11.5657 21.5 11.49C21.498 11.3715 21.5312 11.2551 21.5952 11.1555C21.6593 11.0558 21.7514 10.9774 21.86 10.93L24.02 9.99999C24.1662 9.94267 24.3289 9.94395 24.4742 10.0036C24.6195 10.0632 24.7362 10.1765 24.8 10.32L25.64 12.32C25.7141 12.4952 25.8455 12.64 26.0126 12.7309C26.1797 12.8217 26.3727 12.8531 26.56 12.82C28.1676 12.4999 29.8225 12.4999 31.43 12.82C31.6191 12.8595 31.8161 12.8311 31.9862 12.7396C32.1563 12.6481 32.2887 12.4995 32.36 12.32L33.2 10.32C33.2297 10.2482 33.2732 10.183 33.3281 10.1281C33.383 10.0732 33.4482 10.0296 33.52 9.99999C33.6658 9.9497 33.8242 9.9497 33.97 9.99999L36.18 10.91C36.2905 10.9558 36.3847 11.0336 36.4506 11.1334C36.5166 11.2332 36.5512 11.3504 36.55 11.47C36.5629 11.5428 36.5629 11.6172 36.55 11.69L35.71 13.69C35.638 13.8658 35.6285 14.0611 35.6831 14.2431C35.7377 14.4251 35.8531 14.5828 36.01 14.69C37.3831 15.5929 38.5571 16.7669 39.46 18.14C39.5672 18.2969 39.7249 18.4123 39.9069 18.4669C40.0889 18.5215 40.2842 18.512 40.46 18.44L42.46 17.6C42.6075 17.54 42.7726 17.54 42.92 17.6C42.9915 17.6282 43.0561 17.6713 43.1096 17.7265C43.163 17.7817 43.2041 17.8477 43.23 17.92L44.14 20.12C44.1539 20.196 44.1539 20.274 44.14 20.35C44.1466 20.4668 44.1189 20.583 44.0602 20.6843C44.0016 20.7856 43.9146 20.8675 43.81 20.92H43.85Z" fill="#FCBF42"/>
<path d="M31.76 18.49C30.6689 18.033 29.4817 17.8531 28.3042 17.9662C27.1267 18.0793 25.9955 18.482 25.0114 19.1384C24.0273 19.7948 23.2209 20.6845 22.6641 21.7282C22.1072 22.7719 21.8173 23.9371 21.82 25.12C21.8155 26.0635 21.9991 26.9983 22.36 27.87C22.7255 28.7488 23.262 29.5461 23.9384 30.2156C24.6148 30.8851 25.4176 31.4135 26.3 31.77C27.1714 32.1331 28.106 32.32 29.05 32.32C29.994 32.32 30.9287 32.1331 31.8 31.77C33.116 31.2267 34.2408 30.3044 35.0314 29.1203C35.822 27.9362 36.2427 26.5438 36.24 25.12C36.2452 24.1788 36.0581 23.2463 35.69 22.38C35.329 21.5014 34.795 20.7043 34.1199 20.0361C33.4448 19.3678 32.6423 18.8421 31.76 18.49ZM34.54 25.12C34.5354 26.3982 34.089 27.6354 33.2765 28.622C32.4639 29.6087 31.3352 30.284 30.0816 30.5335C28.8281 30.783 27.5268 30.5915 26.3983 29.9912C25.2699 29.3909 24.3837 28.419 23.89 27.24C23.6081 26.569 23.4652 25.8478 23.47 25.12C23.47 23.6534 24.0526 22.2468 25.0897 21.2097C26.1268 20.1726 27.5334 19.59 29 19.59C29.7285 19.5886 30.4497 19.7349 31.12 20.02C31.7952 20.2941 32.4086 20.7008 32.9239 21.2161C33.4392 21.7314 33.8459 22.3448 34.12 23.02C34.4039 23.6834 34.547 24.3985 34.54 25.12Z" fill="#FCBF42"/>
</svg>
