<svg width="61" height="48" viewBox="0 0 61 48" fill="none" xmlns="http://www.w3.org/2000/svg">
<path d="M48.4 47.2H57.3C59 47.2 60.3 45.9 60.3 44.2V26.2C60.3 25.4 60 24.6 59.4 24.1C58.8 23.5 58.1 23.2 57.3 23.2H50.2V4.9C50.2 2.2 48 0 45.3 0H15C12.3 0 10.1 2.2 10.1 4.9V11.1H4.4C2 11.1 0 13.1 0 15.5V42.7C0 45.1 2 47.1 4.4 47.1H20.5C22.4 47.1 24 45.9 24.7 44.2V44.1H42.2C42.7 44.1 43.1 43.7 43.1 43.2V41.2C43.1 39.6 41.8 38.3 40.2 38.3H31.5V34H45.3V44.1C45.4 45.9 46.8 47.2 48.4 47.2ZM58.6 44.2C58.6 44.9 58 45.4 57.4 45.4H48.5C47.8 45.4 47.3 44.8 47.3 44.2V43.2H58.7V44.2H58.6ZM58.6 41.4H47.2V29H58.6V41.4ZM57.3 25C58 25 58.5 25.6 58.5 26.2V27.2H47.2V26.2C47.2 25.5 47.8 25 48.4 25H57.3ZM20.6 45.4H4.4C2.9 45.4 1.7 44.2 1.7 42.7V42.1H23.2V42.7C23.2 44.2 22 45.4 20.6 45.4ZM23.2 40.4H1.8V17.9H23.3V40.4H23.2ZM23.2 16.2H1.8V15.6C1.8 14.1 3 12.9 4.5 12.9H20.6C22.1 12.9 23.3 14.1 23.3 15.6V16.2H23.2ZM20.6 11.1H11.9V4.9C11.9 3.2 13.3 1.7 15.1 1.7H45.4C47.1 1.7 48.6 3.1 48.6 4.9V23.2H48.5C46.9 23.3 45.6 24.6 45.6 26.2V27.2H25V15.5C25 13.1 23 11.1 20.6 11.1ZM25 34.1H29.8V38.4H25V34.1ZM40.3 40.1C40.9 40.1 41.4 40.6 41.4 41.2V42.3H25V40H40.3V40.1ZM25 32.3V29H45.4V32.3H25Z" fill="#FCBF42"/>
</svg>
