<svg width="58" height="50" viewBox="0 0 58 50" fill="none" xmlns="http://www.w3.org/2000/svg">
<path d="M57.9048 24.6667L48.8571 4.7619C48.6667 4.47619 48.381 4.19048 48 4.19048H34.1905L34.0952 3.90476C33.5238 1.61905 31.4286 0 28.9524 0C26.4762 0 24.4762 1.61905 23.8095 4V4.28571H10C9.52381 4.28571 9.2381 4.47619 9.14286 4.7619L0.0952381 24.6667C0 24.7619 0 24.8571 0 25.0476C0 27.7143 1.04762 30.1905 2.85714 32.0952C4.7619 34 7.23809 35.0476 9.90476 35.0476C15.3333 35.0476 19.8095 30.5714 19.8095 25.1429C19.8095 25.0476 19.8095 24.8571 19.7143 24.7619L11.3333 6.09524H23.7143L23.8095 6.38095C24.1905 8.38095 25.8095 10 27.8095 10.381L28.0952 10.4762V42.1905H22C20 42.1905 18.381 43.8095 18.381 45.8095V48.4762C18.381 48.9524 18.7619 49.3333 19.3333 49.3333H38.5714C39.0476 49.3333 39.5238 48.9524 39.5238 48.4762V45.8095C39.5238 43.8095 37.9048 42.1905 35.9048 42.1905H30V10.4762L30.2857 10.381C32.2857 9.90476 33.8095 8.28571 34.2857 6.38095L34.381 6.09524H46.7619L38.2857 24.7619C38.0952 24.7619 38.0952 24.9524 38.0952 25.0476C38.0952 30.5714 42.5714 34.9524 48 34.9524C53.4286 34.9524 57.9048 30.4762 57.9048 25.0476C58 24.9524 57.9048 24.7619 57.9048 24.6667ZM56.0952 26L56 26.4762C55.3333 30.381 51.9048 33.2381 48 33.2381C44.0952 33.2381 40.6667 30.2857 40 26.4762L39.9048 26H56.0952ZM40.381 24.1905L48 7.33333L55.619 24.1905H40.381ZM20.1905 45.8095C20.1905 44.7619 21.0476 44 22 44H35.8095C36.8571 44 37.619 44.8571 37.619 45.8095V47.5238H20.1905V45.8095ZM32.4762 5.2381C32.4762 7.14286 30.9524 8.66667 29.0476 8.66667C27.1429 8.66667 25.619 7.14286 25.619 5.2381C25.619 3.33333 27.1429 1.80952 29.0476 1.80952C30.8571 1.80952 32.4762 3.33333 32.4762 5.2381ZM2.28571 24.1905L9.90476 7.33333L17.5238 24.1905H2.28571ZM18 26L17.9048 26.4762C17.2381 30.381 13.8095 33.2381 9.90476 33.2381C6 33.2381 2.57143 30.2857 1.90476 26.4762L1.80952 26H18Z" fill="#FCBF42"/>
</svg>
