<svg width="22" height="22" viewBox="0 0 22 22" fill="none" xmlns="http://www.w3.org/2000/svg">
<path d="M21.9832 8.49072C21.9832 8.45764 21.9758 8.40766 21.9629 8.37887C21.9291 8.25624 21.8539 8.14422 21.7415 8.06602L18.5922 5.87685V3.53007C18.5922 3.21897 18.3399 2.96666 18.0288 2.96666H14.4057L11.323 0.823463C11.1303 0.689358 10.8745 0.688799 10.6813 0.822346L7.57866 2.96666H3.97143C3.66025 2.96666 3.40802 3.21897 3.40802 3.53007V5.84922L0.243461 8.03637C0.0877852 8.14396 0.00356641 8.31597 0.000902344 8.49184C0.000730469 8.49515 0 8.49828 0 8.50172L0.0168008 20.7149C0.0170156 20.8643 0.0765703 21.0076 0.182316 21.1131C0.287934 21.2184 0.43102 21.2775 0.580207 21.2775C0.580508 21.2775 0.580723 21.2775 0.58098 21.2775L21.4374 21.2489C21.7485 21.2484 22.0004 20.9958 22 20.6847L21.9832 8.49072ZM18.5921 7.24922L20.3925 8.50039L18.5921 9.75198V7.24922ZM11.0006 1.97163L12.4319 2.96662H9.56111L11.0006 1.97163ZM4.53484 4.09347H17.4653V10.5354L13.1239 13.5536L11.3539 12.1806C11.3511 12.1784 11.3488 12.1771 11.3461 12.1752C11.1483 12.0267 10.8685 12.0213 10.6632 12.1806L8.88027 13.5635L4.53484 10.5603V4.09347ZM3.40802 7.21893V9.78159L1.55409 8.5003L3.40802 7.21893ZM1.12827 9.57637L7.94608 14.2881L1.14202 19.5657L1.12827 9.57637ZM2.229 20.1485L11.0086 13.3386L19.7566 20.1244L2.229 20.1485ZM14.057 14.2773L20.8579 9.54921L20.8716 19.5635L14.057 14.2773Z" fill="#FCBF42"/>
<path d="M14.8143 6.34705H7.18584C6.87475 6.34705 6.62244 6.59936 6.62244 6.91045C6.62244 7.22155 6.87475 7.47386 7.18584 7.47386H14.8143C15.1255 7.47386 15.3777 7.22155 15.3777 6.91045C15.3777 6.59936 15.1255 6.34705 14.8143 6.34705Z" fill="#FCBF42"/>
<path d="M14.8143 9.27673H7.18584C6.87475 9.27673 6.62244 9.52905 6.62244 9.84014C6.62244 10.1512 6.87475 10.4035 7.18584 10.4035H14.8143C15.1255 10.4035 15.3777 10.1512 15.3777 9.84014C15.3777 9.52905 15.1255 9.27673 14.8143 9.27673Z" fill="#FCBF42"/>
</svg>
