<svg width="22" height="21" viewBox="0 0 22 21" fill="none" xmlns="http://www.w3.org/2000/svg">
<g clip-path="url(#clip0)">
<path d="M9.91588 7.21546H6.48261V3.78219C6.48261 3.48554 6.24267 3.24561 5.94602 3.24561C3.46377 3.24561 1.43958 5.26543 1.43958 7.75205C1.43958 10.2387 3.46377 12.2585 5.94602 12.2585C8.42827 12.2585 10.4525 10.2387 10.4525 7.75205C10.4525 7.4554 10.2125 7.21546 9.91588 7.21546ZM5.94602 8.28864H9.34003C9.21788 9.05643 8.83835 9.76315 8.25814 10.291C7.62558 10.8669 6.80543 11.1853 5.94602 11.1853C4.0527 11.1853 2.51275 9.64537 2.51275 7.75205C2.51275 6.897 2.83121 6.07686 3.40705 5.43993C3.93492 4.85972 4.64164 4.48019 5.40943 4.35804V7.75205C5.4138 8.0487 5.65373 8.28864 5.94602 8.28864Z" fill="#FCBF42"/>
<path d="M7.3901 1.80603C7.09345 1.80603 6.85352 2.04597 6.85352 2.34262V6.31248C6.85352 6.60913 7.09345 6.84907 7.3901 6.84907H11.36C11.6566 6.84907 11.8965 6.60913 11.8965 6.31248C11.8965 3.82586 9.87672 1.80603 7.3901 1.80603ZM7.92669 2.91847C9.39248 3.14968 10.5529 4.3101 10.7841 5.7759H7.92669V2.91847Z" fill="#FCBF42"/>
<path d="M20.0195 1.44397H12.8039C12.5073 1.44397 12.2673 1.68391 12.2673 1.98056V11.722C12.2673 12.0186 12.5073 12.2586 12.8039 12.2586H20.0195C20.3161 12.2586 20.5561 12.0186 20.5561 11.722V1.98056C20.5561 1.68391 20.3161 1.44397 20.0195 1.44397ZM19.4872 2.51278V11.1854H13.3405V2.51278H19.4872Z" fill="#FCBF42"/>
<path d="M14.2478 4.31878H16.4116C16.7082 4.31878 16.9481 4.07884 16.9481 3.78219C16.9481 3.48554 16.7082 3.24561 16.4116 3.24561H14.2478C13.9511 3.24561 13.7112 3.48554 13.7112 3.78219C13.7112 4.07884 13.9511 4.31878 14.2478 4.31878Z" fill="#FCBF42"/>
<path d="M14.2478 5.76287H18.5797C18.8764 5.76287 19.1163 5.52293 19.1163 5.22628C19.1163 4.92963 18.8764 4.6897 18.5797 4.6897H14.2478C13.9511 4.6897 13.7112 4.92963 13.7112 5.22628C13.7112 5.52293 13.9511 5.76287 14.2478 5.76287Z" fill="#FCBF42"/>
<path d="M14.2478 7.20684H16.4116C16.7082 7.20684 16.9481 6.9669 16.9481 6.67025C16.9481 6.3736 16.7082 6.13367 16.4116 6.13367H14.2478C13.9511 6.13367 13.7112 6.3736 13.7112 6.67025C13.7112 6.9669 13.9511 7.20684 14.2478 7.20684Z" fill="#FCBF42"/>
<path d="M14.2478 8.64641H18.5797C18.8764 8.64641 19.1163 8.40648 19.1163 8.10983C19.1163 7.81318 18.8764 7.57324 18.5797 7.57324H14.2478C13.9511 7.57324 13.7112 7.81318 13.7112 8.10983C13.7112 8.40648 13.9511 8.64641 14.2478 8.64641Z" fill="#FCBF42"/>
<path d="M14.2478 10.0905H16.4116C16.7082 10.0905 16.9481 9.85057 16.9481 9.55392C16.9481 9.25727 16.7082 9.01733 16.4116 9.01733H14.2478C13.9511 9.01733 13.7112 9.25727 13.7112 9.55392C13.7112 9.85057 13.9511 10.0905 14.2478 10.0905Z" fill="#FCBF42"/>
<path d="M10.2779 15.1421H11.7219C12.0185 15.1421 12.2585 14.9022 12.2585 14.6056C12.2585 14.3089 12.0185 14.069 11.7219 14.069H10.2779C9.98127 14.069 9.74133 14.3089 9.74133 14.6056C9.74133 14.9022 9.98127 15.1421 10.2779 15.1421Z" fill="#FCBF42"/>
<path d="M20.0194 0H1.98056C0.885583 0 0 0.885584 0 1.98057V14.61C0 15.7006 0.885583 16.5905 1.98056 16.5905H10.4656V18.4053H7.27661C6.79674 18.4053 6.36485 18.6714 6.15109 19.0989C5.95478 19.4916 5.97659 19.9496 6.2078 20.3204C6.43902 20.6956 6.836 20.9181 7.27661 20.9181H14.7277C15.1683 20.9181 15.5653 20.6956 15.7965 20.3204C16.0277 19.9453 16.0496 19.4916 15.8532 19.0989C15.6395 18.6714 15.2076 18.4053 14.7277 18.4053H11.5388V16.5905H20.0238C21.1144 16.5905 22.0043 15.7049 22.0043 14.61V1.98057C22 0.885584 21.11 0 20.0194 0ZM14.8848 19.7577C14.8586 19.7969 14.8106 19.8449 14.7234 19.8449H7.27225C7.18064 19.8449 7.13265 19.7882 7.1152 19.7577C7.08903 19.7184 7.06721 19.653 7.10647 19.5745C7.13701 19.509 7.20245 19.4698 7.27225 19.4698H14.7234C14.7932 19.4698 14.8586 19.509 14.8891 19.5745C14.9328 19.653 14.9109 19.7184 14.8848 19.7577ZM20.9268 13.6982V14.6056C20.9268 15.1073 20.5211 15.513 20.0194 15.513H1.98056C1.47888 15.513 1.07317 15.1073 1.07317 14.6056V13.6982H20.9268ZM20.9268 1.98057V12.6294H1.06881V1.98057C1.06881 1.47888 1.47452 1.07317 1.9762 1.07317H20.0194C20.5211 1.06881 20.9268 1.47888 20.9268 1.98057Z" fill="#FCBF42"/>
</g>
<defs>
<clipPath id="clip0">
<rect width="22" height="20.9181" fill="white"/>
</clipPath>
</defs>
</svg>
