<svg width="22" height="20" viewBox="0 0 22 20" fill="none" xmlns="http://www.w3.org/2000/svg">
<g clip-path="url(#clip0)">
<path d="M19.6508 3.53198H11.2747L9.17868 0.891954C8.73845 0.330501 8.07615 0.00398194 7.37099 0H2.34921C1.72587 0 1.1376 0.254844 0.68957 0.712767C0.24544 1.17069 0 1.77594 0 2.41305V16.5927C0 17.2298 0.24544 17.8351 0.68957 18.293C1.1376 18.7509 1.72587 19.0058 2.34921 19.0058H19.6508C20.2741 19.0058 20.8624 18.7509 21.3104 18.293C21.7546 17.8351 22 17.2298 22 16.5927V5.91318C22 4.59914 20.9442 3.53198 19.6508 3.53198ZM4.83868 3.53198C3.53745 3.53198 2.48167 4.59914 2.48167 5.91318V18.0063H2.34921C1.6051 18.0063 0.973969 17.3612 0.973969 16.5927V2.41305C0.973969 1.64454 1.6051 0.995484 2.34921 0.995484H7.3671C7.78006 0.999466 8.16575 1.1906 8.42288 1.5211L10.0163 3.53198H4.83868ZM3.45564 5.91318C3.45564 5.14865 4.07508 4.52348 4.83868 4.52348H19.6508C20.4105 4.52348 21.026 5.14466 21.026 5.91318V16.5888C21.026 17.3573 20.3949 18.0063 19.6508 18.0063H3.45564V5.91318Z" fill="#FCBF42"/>
<path d="M12.2642 5.35974C9.06179 5.35974 6.45935 8.01968 6.45935 11.2928C6.45935 14.566 9.06179 17.2259 12.2642 17.2259C15.4666 17.2259 18.0691 14.566 18.0691 11.2928C18.0652 8.02366 15.4627 5.36372 12.2642 5.35974ZM9.03842 13.5187C8.7774 13.6979 8.53196 13.897 8.3021 14.116C7.8307 13.4272 7.53851 12.6268 7.45669 11.7906H8.75402C8.78908 12.3759 8.88258 12.9573 9.03842 13.5187ZM9.38905 14.4864C9.58774 14.9323 9.83707 15.3465 10.1371 15.7247C9.69682 15.5057 9.29555 15.219 8.94102 14.8726C9.08127 14.7332 9.23321 14.6058 9.38905 14.4864ZM8.94102 7.71307C9.29944 7.36664 9.70072 7.07994 10.1371 6.86093C9.83707 7.23922 9.58774 7.65334 9.38905 8.09932C9.23321 7.97986 9.08127 7.85244 8.94102 7.71307ZM7.46059 10.7951C7.5424 9.95889 7.83459 9.15852 8.30599 8.46964C8.53585 8.68865 8.78129 8.88774 9.04232 9.06693C8.88648 9.63237 8.78908 10.2137 8.76181 10.7991H7.46059V10.7951ZM9.73188 11.7906H11.7772V12.5432C11.1344 12.5989 10.5072 12.7622 9.91499 13.029C9.82149 12.6228 9.75916 12.2047 9.73188 11.7906ZM11.7772 13.5426V15.9437C11.1188 15.4739 10.5851 14.7969 10.2306 13.9727C10.7214 13.7417 11.2396 13.5984 11.7772 13.5426ZM11.7772 10.0425V10.7951H9.73188C9.75526 10.377 9.81759 9.96287 9.91889 9.55671C10.5111 9.8235 11.1344 9.98676 11.7772 10.0425ZM11.7772 6.64193V9.04304C11.2396 8.98729 10.7214 8.84394 10.2306 8.61299C10.589 7.78475 11.1188 7.1118 11.7772 6.64193ZM14.3017 13.9687C13.9472 14.7969 13.4135 15.4739 12.7512 15.9437V13.5387C13.2888 13.5904 13.8109 13.7378 14.3017 13.9687ZM12.7512 12.5392V11.7866H14.7965C14.7731 12.2007 14.7108 12.6148 14.6134 13.017C14.0212 12.7542 13.3979 12.591 12.7512 12.5392ZM15.5913 14.8686C15.2329 15.2151 14.8316 15.5018 14.3914 15.7247C14.6913 15.3425 14.9446 14.9284 15.1433 14.4824C15.2991 14.6018 15.451 14.7293 15.5913 14.8686ZM15.1433 8.1033C14.9446 7.65732 14.6913 7.23922 14.3914 6.86093C14.8316 7.08392 15.2329 7.36664 15.5913 7.71705C15.451 7.85642 15.2991 7.98384 15.1433 8.1033ZM14.7965 10.7951H12.7512V10.0425C13.3979 9.99074 14.0212 9.82748 14.6134 9.56069C14.7108 9.96685 14.7731 10.381 14.7965 10.7951ZM12.7512 9.04702V6.64193C13.4135 7.1118 13.9433 7.78873 14.3017 8.61697C13.8109 8.84792 13.2888 8.99127 12.7512 9.04702ZM17.0717 11.7906C16.9899 12.6268 16.6977 13.4272 16.2263 14.116C15.9965 13.897 15.751 13.6979 15.49 13.5187C15.6458 12.9573 15.7393 12.3759 15.7705 11.7946H17.0717V11.7906ZM17.0717 10.7951H15.7744C15.7432 10.2097 15.6497 9.63237 15.4939 9.07091C15.7549 8.89173 16.0003 8.69263 16.2302 8.47362C16.6977 9.15852 16.9899 9.95889 17.0717 10.7951Z" fill="#FCBF42"/>
</g>
<defs>
<clipPath id="clip0">
<rect width="22" height="19.0018" fill="white"/>
</clipPath>
</defs>
</svg>
