<svg width="23" height="21" viewBox="0 0 23 21" fill="none" xmlns="http://www.w3.org/2000/svg">
<g clip-path="url(#clip0)">
<g clip-path="url(#clip1)">
<g clip-path="url(#clip2)">
<path d="M19.6 5.3C19.6 5.1 19.6 4.9 19.6 4.7C19.6 2.1 17.5 0 14.9 0C13 0 11.2 1 10.5 2.5C9.9 2.3 9.4 2.3 8.9 2.3C7.7 2.3 6.6 2.7 5.7 3.6C4.8 4.3 4.3 5.3 4.2 6.4C3.1 6.6 2 7.1 1.3 7.9C0.4 8.8 0 9.9 0 11.1C0 13.7 2.1 15.8 4.7 15.8H6V14.7H4.7C2.7 14.7 1.1 13.1 1.1 11.1C1.1 9.1 2.7 7.5 4.7 7.5C5.4 7.5 5.9 7.6 6.3 7.8C6.4 7.8 6.5 7.9 6.6 7.9C6.8 7.9 7 7.8 7.1 7.6C7.2 7.5 7.2 7.3 7.1 7.2C7.1 7 7 6.9 6.9 6.9C6.4 6.6 5.9 6.5 5.3 6.4C5.6 4.7 7.1 3.4 8.8 3.4C9.5 3.4 9.9 3.4 10.4 3.7C10.5 3.8 10.7 3.8 10.9 3.7C11.1 3.6 11.2 3.5 11.2 3.4C11.6 2.1 13.1 1.1 14.8 1.1C16.8 1.1 18.4 2.7 18.4 4.7C18.4 5 18.4 5.2 18.3 5.5C18.2 5.8 18.4 6.1 18.7 6.2C20.5 6.7 21.8 8.5 21.8 10.4C21.8 12.8 19.9 14.7 17.5 14.7H17V15.8H17.6C20.6 15.8 23.1 13.3 23.1 10.3C23 8.1 21.6 6.1 19.6 5.3Z" fill="#FCBF42"/>
<path d="M16.3 12L11.5 8.5L6.69995 12V13.4L10.9 10.4V20.9H12.1V10.4L16.3 13.4V12Z" fill="#FCBF42"/>
</g>
</g>
</g>
<defs>
<clipPath id="clip0">
<rect width="23" height="20.3573" fill="white"/>
</clipPath>
<clipPath id="clip1">
<rect width="23" height="20.3573" fill="white"/>
</clipPath>
<clipPath id="clip2">
<rect width="23" height="20.9" fill="white"/>
</clipPath>
</defs>
</svg>
